<svg xmlns="http://www.w3.org/2000/svg" xmlns:xlink="http://www.w3.org/1999/xlink" xmlns:lucid="lucid" width="772" height="352"><g transform="translate(-503 -882)" lucid:page-tab-id="0_0"><path d="M769 933c0-2.76 2.24-5 5-5h50c2.76 0 5 2.24 5 5v10c0 2.76-2.24 5-5 5h-50c-2.76 0-5-2.24-5-5z" fill="none"/><use xlink:href="#a" transform="matrix(1,0,0,1,769,928) translate(1.9954427083333286 13.997395833333332)"/><path d="M860 1023.8c0-2.77 2.24-5 5-5h150c2.76 0 5 2.23 5 5v70c0 2.75-2.24 5-5 5H865c-2.76 0-5-2.25-5-5z" stroke="#eee" stroke-width="2" fill="#eee"/><use xlink:href="#b" transform="matrix(1,0,0,1,880,1018.7917441329107) translate(3.990885416666657 34.66145833333333)"/><use xlink:href="#c" transform="matrix(1,0,0,1,880,1018.7917441329107) translate(11.992187499999993 61.328125)"/><path d="M653.56 1137.7l.75 2.3.84 2.24.94 2.2 1.02 2.2 1.13 2.16 1.24 2.14 1.36 2.14 1.47 2.12 1.6 2.12 1.76 2.1 1.9 2.13 2.1 2.13 2.26 2.13 2.48 2.15 2.72 2.15 2.98 2.17 3.27 2.17 3.6 2.17 3.95 2.2 4.36 2.15 4.82 2.15 5.32 2.1 5.88 2.05 6.5 1.95 7.13 1.84 7.83 1.66 8.55 1.44 9.27 1.17 9.93.84 10.52.44H782l11.28-.47 11.38-.95 11.26-1.42 1.08-.18v2.03l-.8.13-11.33 1.44-11.46.97-11.35.48h-11.07l-10.6-.44-10.02-.84-9.34-1.18-8.64-1.46-7.9-1.68-7.23-1.85-6.57-1.98-5.95-2.07-5.4-2.14-4.9-2.18-4.44-2.2-4.04-2.2-3.66-2.23-3.34-2.22-3.05-2.2-2.77-2.2-2.55-2.2-2.33-2.2-2.14-2.18-1.95-2.18-1.8-2.18-1.67-2.2-1.52-2.18-1.4-2.2-1.28-2.22-1.17-2.23-1.05-2.26-.97-2.3-.86-2.33-.77-2.37-.06-.22 1.9-.53zM941 1099.82l-.06 2.9-.18 2.9-.3 2.8-.4 2.78-.53 2.74-.64 2.7-.76 2.7-.87 2.67-1 2.68-1.1 2.66-1.27 2.67-1.4 2.7-1.56 2.7-1.72 2.7-1.9 2.76-2.12 2.78-2.33 2.8-2.58 2.87-2.86 2.92-3.15 2.95-3.5 3-3.85 3.06-4.27 3.1-4.74 3.15-5.25 3.18-5.82 3.2-6.44 3.2-7.1 3.15-7.8 3.1-8.54 2.96v-2.12l7.84-2.72 7.73-3.06 7.02-3.12 6.35-3.16 5.74-3.15 5.17-3.14 4.67-3.1 4.2-3.06 3.8-3 3.42-2.95 3.08-2.9 2.8-2.86 2.5-2.8 2.3-2.75 2.05-2.72 1.85-2.68 1.68-2.65 1.52-2.62 1.36-2.6 1.23-2.6 1.1-2.6.95-2.57.85-2.6.73-2.6.6-2.64.52-2.65.4-2.7.28-2.73.18-2.8.06-2.87z"/><path d="M941 1099.9l-2-.22.1-.9h2.02zM657.05 1136.47l-9.18 1.3 2.58-14.77z"/><path d="M658.55 1137.27l-11.9 1.68 3.35-19.16zm-9.46-.68l6.44-.93-4.63-9.47z"/><use xlink:href="#d" transform="matrix(1,0,0,1,816.9951999183513,1179.6428200237353) translate(0 17.7734375)"/><path d="M827.27 923.74l10.55 2.24 9.94 2.55 9.26 2.8 8.53 2.97 7.8 3.08 7.1 3.16 6.44 3.2 5.8 3.2 5.26 3.17 4.73 3.15 4.26 3.1 3.86 3.06 3.48 3.02 3.15 2.95 2.85 2.9 2.57 2.87 2.33 2.8 2.1 2.8 1.92 2.74 1.73 2.72 1.56 2.7 1.4 2.68 1.26 2.67 1.12 2.66 1 2.68.86 2.67.36 1.26-1.93.55-.34-1.22-.84-2.6-.98-2.58-1.08-2.6-1.22-2.58-1.37-2.6-1.5-2.63-1.7-2.65-1.86-2.7-2.06-2.7-2.28-2.76-2.52-2.8-2.8-2.84-3.08-2.9-3.4-2.95-3.8-3-4.2-3.05-4.68-3.1-5.17-3.14-5.73-3.15-6.36-3.15-7.02-3.12-7.72-3.06-8.46-2.94-9.18-2.77-9.86-2.53-10.47-2.22-6.7-1.13v-2.03zM777 919v2h-5.96l-10.52.44-9.93.83-9.27 1.17-8.55 1.44-7.84 1.66-7.14 1.83-6.48 1.96-5.88 2.05-5.33 2.1-4.8 2.14-4.37 2.17-3.96 2.16-3.6 2.18-3.26 2.17-2.97 2.17-2.72 2.16-2.47 2.14-2.28 2.13-2.08 2.13-1.9 2.12-1.76 2.1-1.6 2.13-1.47 2.12-1.35 2.13-1.24 2.15-1.13 2.16-1.02 2.2-.93 2.2-.84 2.25-.73 2.28-.66 2.34-.55 2.4-.47 2.46-.37 2.54-.27 2.62-.17 2.72-.06 2.85-2-.03.06-2.9.18-2.8.28-2.7.4-2.62.47-2.55.57-2.47.68-2.43.77-2.37.87-2.33.95-2.3 1.07-2.25 1.16-2.24 1.28-2.2 1.4-2.2 1.53-2.2 1.64-2.18 1.8-2.18 1.97-2.18 2.16-2.2 2.33-2.18 2.54-2.2 2.78-2.2 3.04-2.2 3.34-2.23 3.67-2.22 4.03-2.2 4.44-2.22 4.9-2.16 5.4-2.14 5.96-2.07 6.56-1.98 7.23-1.85 7.9-1.68 8.64-1.46 9.34-1.18 10.02-.84L771 919z"/><path d="M651 997.9l-.1.9h-2.02l.13-1.13zM939.56 1014.6l-6.53-13.52 9.2-1.26z"/><path d="M940 1017.8l-8.47-17.52 11.92-1.63zm-5.47-15.92l4.6 9.5 1.86-10.38z"/><use xlink:href="#e" transform="matrix(1,0,0,1,776.989581316302,911.9164310008717) translate(0.004999999999999005 14.396484375)"/><path d="M540 1003.8c0-2.77 2.24-5 5-5h210c2.76 0 5 2.23 5 5v110c0 2.75-2.24 5-5 5H545c-2.76 0-5-2.25-5-5z" stroke="#99d2f2" stroke-width="2" fill="#c1e4f7"/><use xlink:href="#f" transform="matrix(1,0,0,1,560,998.7917441329107) translate(41.9921875 66.98958333333333)"/><use xlink:href="#g" transform="matrix(1,0,0,1,560,998.7917441329107) translate(8.98681640625 92.06315104166666)"/><path d="M1080 984c0-2.76 2.24-5 5-5h50c2.76 0 5 2.24 5 5v31c0 2.76-2.24 5-5 5h-50c-2.76 0-5-2.24-5-5z" stroke="#eee" stroke-width="2" fill="#fff"/><use xlink:href="#h" transform="matrix(1,0,0,1,1100,979) translate(-6.20263671875 25.896484375)"/><path d="M1177 1037c-6.63 0-12-3.58-12-8 0-3.53 3.25-6.52 8.3-7.6-.3-10.4 19.7-12.4 27.7-8.4 4-6 24-4 24 2 12-2 24 6 16 16 8 8 0 18-16 14-4 5.2-20 5.2-24 0-8 4-24 2-24-8z" stroke="#eee" stroke-width="2" fill="#fff"/><use xlink:href="#i" transform="matrix(1,0,0,1,1181,1013) translate(2.396484375 21.396484375)"/><path d="M1075 1054c0-2.76 2.24-5 5-5h80c2.76 0 5 2.24 5 5v30c0 2.76-2.24 5-5 5h-80c-2.76 0-5-2.24-5-5z" stroke="#eee" stroke-width="2" fill="#fff"/><use xlink:href="#j" transform="matrix(1,0,0,1,1095,1049) translate(-7.4052734375 25.396484375)"/><path d="M1021 1025.75l58-26.25" stroke="#e5e5e5" stroke-width="2" fill="none"/><path d="M1021.4 1026.66l-1.4.64v-2.2l.6-.26zM1080 1000.15l-.6.26-.8-1.8 1.4-.65z" fill="#e5e5e5"/><path d="M1021 1040.75l143.1-10.96" stroke="#e5e5e5" stroke-width="2" fill="none"/><path d="M1021.08 1041.75l-1.08.08v-2l.92-.08zM1165 1029l.2 1.42.1.28-1.13.1-.15-2 1.04-.1z" fill="#e5e5e5"/><path d="M1021 1063.66l53 5.34" stroke="#e5e5e5" stroke-width="2" fill="none"/><path d="M1021.1 1062.66l-.2 2-.9-.1v-2zM1075 1068.1v2l-1.1-.1.2-2z" fill="#e5e5e5"/><path d="M1021 1087.75l78 31.25" stroke="#e5e5e5" stroke-width="2" fill="none"/><path d="M1021.37 1086.82l-.74 1.86-.63-.25v-2.16zM1100 1118.32v2.16l-1.37-.55.74-1.86z" fill="#e5e5e5"/><path d="M1100 1104c0-2.76 2.24-5 5-5h130c2.76 0 5 2.24 5 5v30c0 2.76-2.24 5-5 5h-130c-2.76 0-5-2.24-5-5z" stroke="#eee" stroke-width="2" fill="#fff"/><g><use xlink:href="#k" transform="matrix(1,0,0,1,1120,1099) translate(-4.0087890625 25.396484375)"/></g><defs><path fill="#834187" d="M650-1214c-281 0-336 244-336 533 0 295 60 546 347 546 188 0 263-142 322-282l159 65C1058-155 935 20 659 20c-401 0-546-295-546-701 0-407 135-689 536-689 264 0 391 146 466 335l-168 65c-47-129-127-244-297-244" id="l"/><path fill="#834187" d="M904-1102c199 0 220 177 220 381V0H956v-686c-3-114 0-215-60-264-70-33-125-4-158 71-26 56-39 140-39 252V0H531v-686c-3-114-1-215-61-264-78-41-136 24-157 84-24 69-39 159-39 259V0H105c-3-360 6-732-6-1082h149c6 50 3 123 8 175 36-100 83-195 216-195 135 0 166 79 196 196 42-105 93-196 236-196" id="m"/><path fill="#834187" d="M865-914c-3-187-2-380-2-570h180v1261c0 76 1 155 6 223H877c-8-49-9-116-10-174h-5C801-44 708 26 530 26c-135 0-234-46-297-139s-95-232-95-419c0-377 131-566 392-566 176 0 271 63 335 184zm-286-51c-222 0-255 197-255 427 0 229 31 425 253 425 237 0 286-195 286-441 0-238-52-411-284-411" id="n"/><path fill="#834187" d="M114 20l821-1504h178L296 20H114" id="o"/><path fill="#834187" d="M614-1226c-167 1-283 53-283 213 0 183 186 193 334 234 230 63 463 120 463 409 0 286-219 387-518 390C309 23 131-98 79-338l185-37c34 165 149 248 351 246 184-2 324-58 324-238 0-203-207-221-372-266-210-57-422-111-422-377 0-267 201-356 470-360 279-5 430 101 480 324l-188 33c-28-141-121-215-293-213" id="p"/><path fill="#834187" d="M528 20c-247 0-343-132-343-381v-721h180v686c-4 177 45 284 224 277 194-8 279-136 279-336v-627h181c3 360-6 732 6 1082H885c-4-54-7-126-8-185h-3C809-64 714 20 528 20" id="q"/><path fill="#834187" d="M365-904c58-129 161-200 334-200 130 0 228 46 293 138s98 233 98 420c0 189-34 331-102 425S824 20 698 20c-170 0-275-64-336-184 0 55-3 116-9 164H179c5-68 6-147 6-223v-1261h180c-2 193 4 394-4 580h4zm283 791c221 0 256-197 256-427 0-229-34-425-254-425-236 0-285 195-285 441 0 237 53 411 283 411" id="r"/><g id="a"><use transform="matrix(0.006510416666666667,0,0,0.006510416666666667,0,0)" xlink:href="#l"/><use transform="matrix(0.006510416666666667,0,0,0.006510416666666667,8.001302083333334,0)" xlink:href="#m"/><use transform="matrix(0.006510416666666667,0,0,0.006510416666666667,16.002604166666668,0)" xlink:href="#n"/><use transform="matrix(0.006510416666666667,0,0,0.006510416666666667,24.00390625,0)" xlink:href="#o"/><use transform="matrix(0.006510416666666667,0,0,0.006510416666666667,32.005208333333336,0)" xlink:href="#p"/><use transform="matrix(0.006510416666666667,0,0,0.006510416666666667,40.00651041666667,0)" xlink:href="#q"/><use transform="matrix(0.006510416666666667,0,0,0.006510416666666667,48.00781250000001,0)" xlink:href="#r"/></g><path fill="#999" d="M1121-976c0 225-142 341-344 379L1177 0H957L591-575H353V0H162v-1349h482c281 3 477 100 477 373zM633-726c181-1 296-73 296-247 0-149-101-223-304-223H353v470h280" id="s"/><path fill="#999" d="M528 20c-247 0-343-132-343-381v-721h180v686c-4 177 45 284 224 277 194-8 279-136 279-336v-627h181c3 360-6 732 6 1082H885c-4-54-7-126-8-185h-3C809-64 714 20 528 20" id="t"/><path fill="#999" d="M706-1102c241 0 344 136 343 381V0H868v-695c1-168-57-273-220-268-190 6-283 138-283 336V0H185c-3-360 6-732-6-1082h170c4 54 7 126 8 185h3c63-121 164-204 346-205" id="u"/><path fill="#999" d="M682 16c-209 0-323-80-324-285v-671H190v-142h170l58-282h120v282h432v142H538v652c2 114 60 155 182 155 106 0 209-16 297-34v137C921-4 806 16 682 16" id="v"/><path fill="#999" d="M745-142h380V0H143v-142h422v-798H246v-142h499v940zM545-1292v-192h200v192H545" id="w"/><path fill="#999" d="M904-1102c199 0 220 177 220 381V0H956v-686c-3-114 0-215-60-264-70-33-125-4-158 71-26 56-39 140-39 252V0H531v-686c-3-114-1-215-61-264-78-41-136 24-157 84-24 69-39 159-39 259V0H105c-3-360 6-732-6-1082h149c6 50 3 123 8 175 36-100 83-195 216-195 135 0 166 79 196 196 42-105 93-196 236-196" id="x"/><path fill="#999" d="M617-1102c355 0 481 238 477 599H322c5 222 84 388 301 388 144 0 244-59 284-166l158 45C1002-72 854 20 623 20c-342 0-490-220-490-568 0-346 151-554 484-554zm291 461c-18-192-90-328-289-328-194 0-287 128-295 328h584" id="y"/><g id="b"><use transform="matrix(0.013020833333333334,0,0,0.013020833333333334,0,0)" xlink:href="#s"/><use transform="matrix(0.013020833333333334,0,0,0.013020833333333334,16.002604166666668,0)" xlink:href="#t"/><use transform="matrix(0.013020833333333334,0,0,0.013020833333333334,32.005208333333336,0)" xlink:href="#u"/><use transform="matrix(0.013020833333333334,0,0,0.013020833333333334,48.0078125,0)" xlink:href="#v"/><use transform="matrix(0.013020833333333334,0,0,0.013020833333333334,64.01041666666667,0)" xlink:href="#w"/><use transform="matrix(0.013020833333333334,0,0,0.013020833333333334,80.01302083333334,0)" xlink:href="#x"/><use transform="matrix(0.013020833333333334,0,0,0.013020833333333334,96.01562500000001,0)" xlink:href="#y"/></g><path fill="#999" d="M614-1226c-167 1-283 53-283 213 0 183 186 193 334 234 230 63 463 120 463 409 0 286-219 387-518 390C309 23 131-98 79-338l185-37c34 165 149 248 351 246 184-2 324-58 324-238 0-203-207-221-372-266-210-57-422-111-422-377 0-267 201-356 470-360 279-5 430 101 480 324l-188 33c-28-141-121-215-293-213" id="z"/><path fill="#999" d="M168 279c222 39 310-114 368-290L66-1082h192c120 299 249 590 362 896 115-301 235-597 351-896h190L705 0c-65 164-130 320-275 396-67 36-177 35-262 18V279" id="A"/><path fill="#999" d="M873-819c-18-114-119-146-250-146-163 0-245 50-245 151 0 151 170 148 294 185 182 54 388 94 388 320 0 240-189 325-439 329-245 4-410-69-454-268l159-31c24 133 136 168 295 165 144-2 270-31 270-171 0-164-195-160-331-202-167-52-350-87-350-299 0-218 173-315 413-313 220 2 373 77 412 260" id="B"/><g id="c"><use transform="matrix(0.013020833333333334,0,0,0.013020833333333334,0,0)" xlink:href="#z"/><use transform="matrix(0.013020833333333334,0,0,0.013020833333333334,16.002604166666668,0)" xlink:href="#A"/><use transform="matrix(0.013020833333333334,0,0,0.013020833333333334,32.005208333333336,0)" xlink:href="#B"/><use transform="matrix(0.013020833333333334,0,0,0.013020833333333334,48.0078125,0)" xlink:href="#v"/><use transform="matrix(0.013020833333333334,0,0,0.013020833333333334,64.01041666666667,0)" xlink:href="#y"/><use transform="matrix(0.013020833333333334,0,0,0.013020833333333334,80.01302083333334,0)" xlink:href="#x"/></g><path d="M285-1169c8 382 2 780 4 1169H129v-1349h237c86 239 188 461 253 720 69-258 169-481 255-720h225V0H937c2-390-5-788 6-1169-75 255-170 488-259 729H547c-90-240-185-475-262-729" id="C"/><path d="M873-819c-18-114-119-146-250-146-163 0-245 50-245 151 0 151 170 148 294 185 182 54 388 94 388 320 0 240-189 325-439 329-245 4-410-69-454-268l159-31c24 133 136 168 295 165 144-2 270-31 270-171 0-164-195-160-331-202-167-52-350-87-350-299 0-218 173-315 413-313 220 2 373 77 412 260" id="D"/><path d="M1048-32c-2 300-135 456-433 456-222-1-358-88-400-267l184-25c22 99 100 157 222 156 184-2 248-125 248-315 0-64 3-133-2-194C807-100 706-13 524-12c-306 0-381-228-381-537 0-318 85-550 400-550 164 0 271 83 325 202h3c1-60 3-134 12-185h171c-13 339-4 702-6 1050zM585-145c210-8 284-178 284-406 0-192-52-331-177-392-33-16-69-22-104-22-223 2-259 184-259 414 0 229 31 415 256 406" id="E"/><g id="d"><use transform="matrix(0.010850694444444444,0,0,0.010850694444444444,0,0)" xlink:href="#C"/><use transform="matrix(0.010850694444444444,0,0,0.010850694444444444,13.335503472222221,0)" xlink:href="#D"/><use transform="matrix(0.010850694444444444,0,0,0.010850694444444444,26.671006944444443,0)" xlink:href="#E"/></g><path d="M875 0v-623H353V0H162v-1349h191v566h522v-566h191V0H875" id="F"/><path d="M682 16c-209 0-323-80-324-285v-671H190v-142h170l58-282h120v282h432v142H538v652c2 114 60 155 182 155 106 0 209-16 297-34v137C921-4 806 16 682 16" id="G"/><path d="M904-1102c199 0 220 177 220 381V0H956v-686c-3-114 0-215-60-264-70-33-125-4-158 71-26 56-39 140-39 252V0H531v-686c-3-114-1-215-61-264-78-41-136 24-157 84-24 69-39 159-39 259V0H105c-3-360 6-732-6-1082h149c6 50 3 123 8 175 36-100 83-195 216-195 135 0 166 79 196 196 42-105 93-196 236-196" id="H"/><path d="M736-142h380V0H134v-142h422v-1200H267v-142h469v1342" id="I"/><g id="e"><use transform="matrix(0.0087890625,0,0,0.0087890625,0,0)" xlink:href="#F"/><use transform="matrix(0.0087890625,0,0,0.0087890625,10.8017578125,0)" xlink:href="#G"/><use transform="matrix(0.0087890625,0,0,0.0087890625,21.603515625,0)" xlink:href="#H"/><use transform="matrix(0.0087890625,0,0,0.0087890625,32.4052734375,0)" xlink:href="#I"/></g><path d="M162 0v-1349h919v156H353v422h668v154H353v461h769V0H162" id="J"/><g id="f"><use transform="matrix(0.026041666666666668,0,0,0.026041666666666668,0,0)" xlink:href="#J"/><use transform="matrix(0.026041666666666668,0,0,0.026041666666666668,32.005208333333336,0)" xlink:href="#I"/><use transform="matrix(0.026041666666666668,0,0,0.026041666666666668,64.01041666666667,0)" xlink:href="#H"/></g><path d="M802-711c201 25 350 118 350 331C1152-95 921 0 634 0H162v-1349c401 9 908-74 908 327 0 184-111 275-268 311zm-224-69c174-2 300-51 300-218 0-163-124-198-302-198H353v416h225zM353-153c281-2 612 44 606-244-5-271-329-233-606-234v478" id="K"/><path d="M839-1102c70 0 148 7 206 17v167c-112-18-268-36-363 15-129 69-208 203-208 395V0H294c-10-367 32-789-52-1082h171c21 75 41 161 48 250h5c67-152 152-270 373-270" id="L"/><path d="M615-1102c343 0 484 203 482 560-1 347-147 562-488 562-336 0-475-219-479-562-4-349 156-560 485-560zm-8 989c240 0 301-180 301-429 0-245-55-427-290-427-236 0-299 181-299 427 0 243 61 429 288 429" id="M"/><path d="M1018 0H814c-67-224-138-444-200-673C552-442 476-224 407 0H204L21-1082h178c43 310 105 601 126 933 54-225 128-425 193-638h193c63 212 134 415 185 638 22-336 90-622 136-933h176" id="N"/><path d="M617-1102c355 0 481 238 477 599H322c5 222 84 388 301 388 144 0 244-59 284-166l158 45C1002-72 854 20 623 20c-342 0-490-220-490-568 0-346 151-554 484-554zm291 461c-18-192-90-328-289-328-194 0-287 128-295 328h584" id="O"/><path d="M496 0v-299h235V0H496" id="P"/><path d="M706-1102c241 0 344 136 343 381V0H868v-695c1-168-57-273-220-268-190 6-283 138-283 336V0H185c-3-360 6-732-6-1082h170c4 54 7 126 8 185h3c63-121 164-204 346-205" id="Q"/><g id="g"><use transform="matrix(0.0087890625,0,0,0.0087890625,0,0)" xlink:href="#K"/><use transform="matrix(0.0087890625,0,0,0.0087890625,10.8017578125,0)" xlink:href="#L"/><use transform="matrix(0.0087890625,0,0,0.0087890625,21.603515625,0)" xlink:href="#M"/><use transform="matrix(0.0087890625,0,0,0.0087890625,32.4052734375,0)" xlink:href="#N"/><use transform="matrix(0.0087890625,0,0,0.0087890625,43.20703125,0)" xlink:href="#D"/><use transform="matrix(0.0087890625,0,0,0.0087890625,54.0087890625,0)" xlink:href="#O"/><use transform="matrix(0.0087890625,0,0,0.0087890625,64.810546875,0)" xlink:href="#L"/><use transform="matrix(0.0087890625,0,0,0.0087890625,75.6123046875,0)" xlink:href="#P"/><use transform="matrix(0.0087890625,0,0,0.0087890625,86.4140625,0)" xlink:href="#O"/><use transform="matrix(0.0087890625,0,0,0.0087890625,97.2158203125,0)" xlink:href="#I"/><use transform="matrix(0.0087890625,0,0,0.0087890625,108.017578125,0)" xlink:href="#O"/><use transform="matrix(0.0087890625,0,0,0.0087890625,118.8193359375,0)" xlink:href="#H"/><use transform="matrix(0.0087890625,0,0,0.0087890625,129.62109375,0)" xlink:href="#O"/><use transform="matrix(0.0087890625,0,0,0.0087890625,140.4228515625,0)" xlink:href="#Q"/><use transform="matrix(0.0087890625,0,0,0.0087890625,151.224609375,0)" xlink:href="#G"/></g><path fill="#ccc" d="M473-1349c438-1 655 221 652 661C1122-268 945-8 532 0H162v-1349h311zm42 1193c308-4 416-205 418-532 2-330-131-509-459-505H353v1037h162" id="R"/><path fill="#ccc" d="M102-681c0-398 126-689 513-689 165 0 291 58 379 174s132 287 132 515c-1 318-88 554-298 657-123 61-317 58-438-3-206-104-288-341-288-654zm749 406c94-160 97-656-5-807-57-85-130-132-231-132-104 0-178 47-234 132-101 153-99 655 1 809 57 89 130 138 232 138 109 0 184-49 237-140" id="S"/><path fill="#ccc" d="M285-1169c8 382 2 780 4 1169H129v-1349h237c86 239 188 461 253 720 69-258 169-481 255-720h225V0H937c2-390-5-788 6-1169-75 255-170 488-259 729H547c-90-240-185-475-262-729" id="T"/><g id="h"><use transform="matrix(0.0087890625,0,0,0.0087890625,0,0)" xlink:href="#R"/><use transform="matrix(0.0087890625,0,0,0.0087890625,10.8017578125,0)" xlink:href="#S"/><use transform="matrix(0.0087890625,0,0,0.0087890625,21.603515625,0)" xlink:href="#T"/></g><path fill="#ccc" d="M875 0v-623H353V0H162v-1349h191v566h522v-566h191V0H875" id="U"/><path fill="#ccc" d="M709-1193V0H519v-1193H76v-156h1076v156H709" id="V"/><path fill="#ccc" d="M622-1349c296 4 497 117 497 404 0 282-193 424-485 431H353V0H162v-1349h460zm-15 684c195-3 320-88 320-277 0-184-129-255-328-254H353v531h254" id="W"/><g id="i"><use transform="matrix(0.0087890625,0,0,0.0087890625,0,0)" xlink:href="#U"/><use transform="matrix(0.0087890625,0,0,0.0087890625,10.8017578125,0)" xlink:href="#V"/><use transform="matrix(0.0087890625,0,0,0.0087890625,21.603515625,0)" xlink:href="#V"/><use transform="matrix(0.0087890625,0,0,0.0087890625,32.4052734375,0)" xlink:href="#W"/></g><path fill="#ccc" d="M1060-1016c0 191-128 285-295 323v4c154 18 262 91 313 209 14 35 21 72 21 110 0 277-194 390-478 390-292 0-457-129-493-382l186-17c24 161 121 250 307 250 172 1 298-80 291-247-8-208-220-239-446-233v-156c217 9 409-34 409-232 0-152-102-225-264-225-159 0-264 88-278 233l-181-14c33-239 196-367 461-367 264 0 447 102 447 354" id="X"/><path fill="#ccc" d="M496 0v-299h235V0H496zm0-783v-299h235v299H496" id="Y"/><path fill="#ccc" d="M148-1120c216-7 379-89 463-229h166v1204h353V0H157v-145h439v-1021c-79 124-254 184-448 194v-148" id="Z"/><path fill="#ccc" d="M937-319V0H757v-319H103v-140l635-890h199v888h188v142H937zm-180-835L257-461h500v-693" id="aa"/><path fill="#ccc" d="M698-1104c312 3 392 244 392 558 0 315-82 566-392 566-169 0-277-65-331-184h-5c8 188 2 394 4 589H185V-858c0-76-1-156-6-224h175c6 52 9 120 10 178h4c58-122 150-202 330-200zm-49 991c225 0 255-203 255-433 0-225-32-419-253-419-236 0-285 192-285 441 0 237 53 411 283 411" id="ab"/><path fill="#ccc" d="M904-1102c199 0 220 177 220 381V0H956v-686c-3-114 0-215-60-264-70-33-125-4-158 71-26 56-39 140-39 252V0H531v-686c-3-114-1-215-61-264-78-41-136 24-157 84-24 69-39 159-39 259V0H105c-3-360 6-732-6-1082h149c6 50 3 123 8 175 36-100 83-195 216-195 135 0 166 79 196 196 42-105 93-196 236-196" id="ac"/><g id="j"><use transform="matrix(0.0087890625,0,0,0.0087890625,0,0)" xlink:href="#X"/><use transform="matrix(0.0087890625,0,0,0.0087890625,10.8017578125,0)" xlink:href="#Y"/><use transform="matrix(0.0087890625,0,0,0.0087890625,21.603515625,0)" xlink:href="#Z"/><use transform="matrix(0.0087890625,0,0,0.0087890625,32.4052734375,0)" xlink:href="#aa"/><use transform="matrix(0.0087890625,0,0,0.0087890625,43.20703125,0)" xlink:href="#ab"/><use transform="matrix(0.0087890625,0,0,0.0087890625,54.0087890625,0)" xlink:href="#ac"/></g><path fill="#ccc" d="M1121-976c0 225-142 341-344 379L1177 0H957L591-575H353V0H162v-1349h482c281 3 477 100 477 373zM633-726c181-1 296-73 296-247 0-149-101-223-304-223H353v470h280" id="ad"/><path fill="#ccc" d="M1000-272c3 95 12 159 101 161 21 0 41-3 59-7V-6c-44 10-86 16-139 16-141 2-191-84-197-217h-6C748-76 648 20 446 20c-207 0-318-120-318-322 0-266 194-348 454-354l236-4c12-191-40-305-222-305-140 0-220 47-232 172l-188-17c33-204 181-292 423-292 255 0 401 118 401 364v466zm-683-27c0 109 63 184 175 182 166-3 259-96 306-217 24-65 20-120 20-200-232 7-501-28-501 235" id="ae"/><path fill="#ccc" d="M706-1102c241 0 344 136 343 381V0H868v-695c1-168-57-273-220-268-190 6-283 138-283 336V0H185c-3-360 6-732-6-1082h170c4 54 7 126 8 185h3c63-121 164-204 346-205" id="af"/><path fill="#ccc" d="M865-914c-3-187-2-380-2-570h180v1261c0 76 1 155 6 223H877c-8-49-9-116-10-174h-5C801-44 708 26 530 26c-135 0-234-46-297-139s-95-232-95-419c0-377 131-566 392-566 176 0 271 63 335 184zm-286-51c-222 0-255 197-255 427 0 229 31 425 253 425 237 0 286-195 286-441 0-238-52-411-284-411" id="ag"/><path fill="#ccc" d="M615-1102c343 0 484 203 482 560-1 347-147 562-488 562-336 0-475-219-479-562-4-349 156-560 485-560zm-8 989c240 0 301-180 301-429 0-245-55-427-290-427-236 0-299 181-299 427 0 243 61 429 288 429" id="ah"/><path fill="#ccc" d="M617-1102c355 0 481 238 477 599H322c5 222 84 388 301 388 144 0 244-59 284-166l158 45C1002-72 854 20 623 20c-342 0-490-220-490-568 0-346 151-554 484-554zm291 461c-18-192-90-328-289-328-194 0-287 128-295 328h584" id="ai"/><path fill="#ccc" d="M873-819c-18-114-119-146-250-146-163 0-245 50-245 151 0 151 170 148 294 185 182 54 388 94 388 320 0 240-189 325-439 329-245 4-410-69-454-268l159-31c24 133 136 168 295 165 144-2 270-31 270-171 0-164-195-160-331-202-167-52-350-87-350-299 0-218 173-315 413-313 220 2 373 77 412 260" id="aj"/><g id="k"><use transform="matrix(0.0087890625,0,0,0.0087890625,0,0)" xlink:href="#ad"/><use transform="matrix(0.0087890625,0,0,0.0087890625,10.8017578125,0)" xlink:href="#ae"/><use transform="matrix(0.0087890625,0,0,0.0087890625,21.603515625,0)" xlink:href="#af"/><use transform="matrix(0.0087890625,0,0,0.0087890625,32.4052734375,0)" xlink:href="#ag"/><use transform="matrix(0.0087890625,0,0,0.0087890625,43.20703125,0)" xlink:href="#ah"/><use transform="matrix(0.0087890625,0,0,0.0087890625,54.0087890625,0)" xlink:href="#ac"/><use transform="matrix(0.0087890625,0,0,0.0087890625,64.810546875,0)" xlink:href="#af"/><use transform="matrix(0.0087890625,0,0,0.0087890625,75.6123046875,0)" xlink:href="#ai"/><use transform="matrix(0.0087890625,0,0,0.0087890625,86.4140625,0)" xlink:href="#aj"/><use transform="matrix(0.0087890625,0,0,0.0087890625,97.2158203125,0)" xlink:href="#aj"/></g></defs></g></svg>