<svg xmlns="http://www.w3.org/2000/svg" xmlns:xlink="http://www.w3.org/1999/xlink" xmlns:lucid="lucid" width="776" height="353"><g transform="translate(-501 -523)" lucid:page-tab-id="0_0"><path d="M860 665c0-2.76 2.24-5 5-5h150c2.76 0 5 2.24 5 5v70c0 2.76-2.24 5-5 5H865c-2.76 0-5-2.24-5-5z" stroke="#eee" stroke-width="2" fill="#eee"/><use xlink:href="#a" transform="matrix(1,0,0,1,880,660) translate(3.990885416666657 34.66145833333333)"/><use xlink:href="#b" transform="matrix(1,0,0,1,880,660) translate(11.992187499999993 61.328125)"/><path d="M653.56 778.9l.75 2.3.84 2.25.94 2.2 1.02 2.2 1.13 2.16 1.24 2.15 1.36 2.13 1.47 2.13 1.6 2.12 1.76 2.12 1.9 2.12 2.1 2.12 2.26 2.14 2.48 2.14 2.72 2.15 2.98 2.18 3.27 2.17 3.6 2.17 3.95 2.18 4.36 2.16 4.82 2.15 5.32 2.1 5.88 2.06 6.5 1.95 7.13 1.84 7.83 1.67 8.55 1.45 9.27 1.17 9.93.83 10.52.44H782l11.28-.48 11.38-.96 11.26-1.42 1.08-.18v2.03l-.8.12-11.33 1.43-11.46.96-11.35.5h-11.07l-10.6-.45-10.02-.84-9.34-1.17-8.64-1.46-7.9-1.68-7.23-1.86-6.57-1.98-5.95-2.07-5.4-2.15-4.9-2.18-4.44-2.2-4.04-2.22-3.66-2.2-3.34-2.23-3.05-2.2-2.77-2.22-2.55-2.2-2.33-2.2-2.14-2.17-1.95-2.18-1.8-2.18-1.67-2.2-1.52-2.18-1.4-2.2-1.28-2.23-1.17-2.23-1.05-2.27-.97-2.3-.86-2.32-.77-2.37-.06-.22 1.9-.54zM941 741.02l-.06 2.92-.18 2.87-.3 2.83-.4 2.78-.53 2.75-.64 2.7-.76 2.7-.87 2.67-1 2.67-1.1 2.65-1.27 2.67-1.4 2.68-1.56 2.7-1.72 2.72-1.9 2.75-2.12 2.78-2.33 2.8-2.58 2.87-2.86 2.9-3.15 2.96-3.5 3-3.85 3.06-4.27 3.1-4.74 3.15-5.25 3.17-5.82 3.2-6.44 3.2-7.1 3.14-7.8 3.1-8.54 2.97v-2.12l7.84-2.72 7.73-3.06 7.02-3.13 6.35-3.15 5.74-3.16 5.17-3.14 4.67-3.1 4.2-3.05 3.8-3 3.42-2.95 3.08-2.9 2.8-2.85 2.5-2.8 2.3-2.75 2.05-2.7 1.85-2.7 1.68-2.64 1.52-2.62 1.36-2.6 1.23-2.6 1.1-2.6.95-2.58.85-2.6.73-2.6.6-2.63.52-2.65.4-2.7.28-2.73.18-2.8.06-2.87z"/><path d="M941 741.12l-2-.23.1-.9h2.02zM657.05 777.68l-9.18 1.3 2.58-14.78z"/><path d="M658.55 778.48l-11.9 1.68L650 761zm-9.46-.68l6.44-.92-4.63-9.47z"/><use xlink:href="#c" transform="matrix(1,0,0,1,816.9951999183513,820.8510758908245) translate(0 17.7734375)"/><path d="M827.27 564.95l10.55 2.24 9.94 2.54 9.26 2.8 8.53 2.96 7.8 3.1 7.1 3.15 6.44 3.2 5.8 3.2 5.26 3.17 4.73 3.14 4.26 3.1 3.86 3.06 3.48 3 3.15 2.96 2.85 2.9 2.57 2.86 2.33 2.82 2.1 2.78 1.92 2.75 1.73 2.7 1.56 2.7 1.4 2.68 1.26 2.67 1.12 2.67 1 2.66.86 2.68.36 1.26-1.93.54-.34-1.22-.84-2.6-.98-2.6-1.08-2.57-1.22-2.6-1.37-2.6-1.5-2.63-1.7-2.65-1.86-2.68-2.06-2.72-2.28-2.75-2.52-2.8-2.8-2.84-3.08-2.9-3.4-2.94-3.8-3-4.2-3.06-4.68-3.1-5.17-3.13-5.73-3.15-6.36-3.16-7.02-3.12-7.72-3.06-8.46-2.94-9.18-2.77-9.86-2.53-10.47-2.23-6.7-1.12v-2.03zM777 560.2v2h-5.96l-10.52.45-9.93.83-9.27 1.17-8.55 1.44-7.84 1.65-7.14 1.83-6.48 1.96-5.88 2.04-5.33 2.1-4.8 2.15-4.37 2.17-3.96 2.17-3.6 2.18-3.26 2.17-2.97 2.16-2.72 2.15-2.47 2.15-2.28 2.13-2.08 2.14-1.9 2.1-1.76 2.13-1.6 2.12-1.47 2.1-1.35 2.14-1.24 2.15-1.13 2.15-1.02 2.18-.93 2.22-.84 2.25-.73 2.3-.66 2.33-.55 2.4-.47 2.46-.37 2.53-.27 2.62-.17 2.72-.06 2.85-2-.04.06-2.9.18-2.8.28-2.7.4-2.62.47-2.55.57-2.47.68-2.42.77-2.36.87-2.33.95-2.28 1.07-2.26 1.16-2.24 1.28-2.2 1.4-2.22 1.53-2.2 1.64-2.17 1.8-2.18 1.97-2.18 2.16-2.2 2.33-2.18 2.54-2.2 2.78-2.2 3.04-2.22 3.34-2.22 3.67-2.22 4.03-2.22 4.44-2.2 4.9-2.18 5.4-2.13 5.96-2.06 6.56-1.98 7.23-1.86 7.9-1.68 8.64-1.45 9.34-1.18 10.02-.85 10.6-.44z"/><path d="M651 639.1l-.1.9h-2.02l.13-1.12zM939.56 655.8l-6.53-13.5 9.2-1.27z"/><path d="M940 659l-8.47-17.52 11.92-1.63zm-5.47-15.9l4.6 9.5 1.86-10.4z"/><use xlink:href="#d" transform="matrix(1,0,0,1,776.9895813163018,553.124686867961) translate(0.004999999999999005 14.396484375)"/><path d="M540 645c0-2.76 2.24-5 5-5h210c2.76 0 5 2.24 5 5v110c0 2.76-2.24 5-5 5H545c-2.76 0-5-2.24-5-5z" stroke="#99d2f2" stroke-width="2" fill="#c1e4f7"/><use xlink:href="#e" transform="matrix(1,0,0,1,560,640) translate(41.9921875 66.98958333333333)"/><use xlink:href="#f" transform="matrix(1,0,0,1,560,640) translate(8.98681640625 92.06315104166666)"/><path d="M1080 684.5c0-2.76 2.24-5 5-5h50c2.76 0 5 2.24 5 5v31c0 2.76-2.24 5-5 5h-50c-2.76 0-5-2.24-5-5z" stroke="#eee" stroke-width="2" fill="#fff"/><use xlink:href="#g" transform="matrix(1,0,0,1,1100,679.5) translate(-6.20263671875 25.896484375)"/><path d="M1021 700h58" stroke="#e5e5e5" stroke-width="2" fill="none"/><path d="M1021 701h-1v-2h1zM1080 701h-1v-2h1z" fill="#e5e5e5"/><defs><path fill="#999" d="M1121-976c0 225-142 341-344 379L1177 0H957L591-575H353V0H162v-1349h482c281 3 477 100 477 373zM633-726c181-1 296-73 296-247 0-149-101-223-304-223H353v470h280" id="h"/><path fill="#999" d="M528 20c-247 0-343-132-343-381v-721h180v686c-4 177 45 284 224 277 194-8 279-136 279-336v-627h181c3 360-6 732 6 1082H885c-4-54-7-126-8-185h-3C809-64 714 20 528 20" id="i"/><path fill="#999" d="M706-1102c241 0 344 136 343 381V0H868v-695c1-168-57-273-220-268-190 6-283 138-283 336V0H185c-3-360 6-732-6-1082h170c4 54 7 126 8 185h3c63-121 164-204 346-205" id="j"/><path fill="#999" d="M682 16c-209 0-323-80-324-285v-671H190v-142h170l58-282h120v282h432v142H538v652c2 114 60 155 182 155 106 0 209-16 297-34v137C921-4 806 16 682 16" id="k"/><path fill="#999" d="M745-142h380V0H143v-142h422v-798H246v-142h499v940zM545-1292v-192h200v192H545" id="l"/><path fill="#999" d="M904-1102c199 0 220 177 220 381V0H956v-686c-3-114 0-215-60-264-70-33-125-4-158 71-26 56-39 140-39 252V0H531v-686c-3-114-1-215-61-264-78-41-136 24-157 84-24 69-39 159-39 259V0H105c-3-360 6-732-6-1082h149c6 50 3 123 8 175 36-100 83-195 216-195 135 0 166 79 196 196 42-105 93-196 236-196" id="m"/><path fill="#999" d="M617-1102c355 0 481 238 477 599H322c5 222 84 388 301 388 144 0 244-59 284-166l158 45C1002-72 854 20 623 20c-342 0-490-220-490-568 0-346 151-554 484-554zm291 461c-18-192-90-328-289-328-194 0-287 128-295 328h584" id="n"/><g id="a"><use transform="matrix(0.013020833333333334,0,0,0.013020833333333334,0,0)" xlink:href="#h"/><use transform="matrix(0.013020833333333334,0,0,0.013020833333333334,16.002604166666668,0)" xlink:href="#i"/><use transform="matrix(0.013020833333333334,0,0,0.013020833333333334,32.005208333333336,0)" xlink:href="#j"/><use transform="matrix(0.013020833333333334,0,0,0.013020833333333334,48.0078125,0)" xlink:href="#k"/><use transform="matrix(0.013020833333333334,0,0,0.013020833333333334,64.01041666666667,0)" xlink:href="#l"/><use transform="matrix(0.013020833333333334,0,0,0.013020833333333334,80.01302083333334,0)" xlink:href="#m"/><use transform="matrix(0.013020833333333334,0,0,0.013020833333333334,96.01562500000001,0)" xlink:href="#n"/></g><path fill="#999" d="M614-1226c-167 1-283 53-283 213 0 183 186 193 334 234 230 63 463 120 463 409 0 286-219 387-518 390C309 23 131-98 79-338l185-37c34 165 149 248 351 246 184-2 324-58 324-238 0-203-207-221-372-266-210-57-422-111-422-377 0-267 201-356 470-360 279-5 430 101 480 324l-188 33c-28-141-121-215-293-213" id="o"/><path fill="#999" d="M168 279c222 39 310-114 368-290L66-1082h192c120 299 249 590 362 896 115-301 235-597 351-896h190L705 0c-65 164-130 320-275 396-67 36-177 35-262 18V279" id="p"/><path fill="#999" d="M873-819c-18-114-119-146-250-146-163 0-245 50-245 151 0 151 170 148 294 185 182 54 388 94 388 320 0 240-189 325-439 329-245 4-410-69-454-268l159-31c24 133 136 168 295 165 144-2 270-31 270-171 0-164-195-160-331-202-167-52-350-87-350-299 0-218 173-315 413-313 220 2 373 77 412 260" id="q"/><g id="b"><use transform="matrix(0.013020833333333334,0,0,0.013020833333333334,0,0)" xlink:href="#o"/><use transform="matrix(0.013020833333333334,0,0,0.013020833333333334,16.002604166666668,0)" xlink:href="#p"/><use transform="matrix(0.013020833333333334,0,0,0.013020833333333334,32.005208333333336,0)" xlink:href="#q"/><use transform="matrix(0.013020833333333334,0,0,0.013020833333333334,48.0078125,0)" xlink:href="#k"/><use transform="matrix(0.013020833333333334,0,0,0.013020833333333334,64.01041666666667,0)" xlink:href="#n"/><use transform="matrix(0.013020833333333334,0,0,0.013020833333333334,80.01302083333334,0)" xlink:href="#m"/></g><path d="M285-1169c8 382 2 780 4 1169H129v-1349h237c86 239 188 461 253 720 69-258 169-481 255-720h225V0H937c2-390-5-788 6-1169-75 255-170 488-259 729H547c-90-240-185-475-262-729" id="r"/><path d="M873-819c-18-114-119-146-250-146-163 0-245 50-245 151 0 151 170 148 294 185 182 54 388 94 388 320 0 240-189 325-439 329-245 4-410-69-454-268l159-31c24 133 136 168 295 165 144-2 270-31 270-171 0-164-195-160-331-202-167-52-350-87-350-299 0-218 173-315 413-313 220 2 373 77 412 260" id="s"/><path d="M1048-32c-2 300-135 456-433 456-222-1-358-88-400-267l184-25c22 99 100 157 222 156 184-2 248-125 248-315 0-64 3-133-2-194C807-100 706-13 524-12c-306 0-381-228-381-537 0-318 85-550 400-550 164 0 271 83 325 202h3c1-60 3-134 12-185h171c-13 339-4 702-6 1050zM585-145c210-8 284-178 284-406 0-192-52-331-177-392-33-16-69-22-104-22-223 2-259 184-259 414 0 229 31 415 256 406" id="t"/><g id="c"><use transform="matrix(0.010850694444444444,0,0,0.010850694444444444,0,0)" xlink:href="#r"/><use transform="matrix(0.010850694444444444,0,0,0.010850694444444444,13.335503472222221,0)" xlink:href="#s"/><use transform="matrix(0.010850694444444444,0,0,0.010850694444444444,26.671006944444443,0)" xlink:href="#t"/></g><path d="M875 0v-623H353V0H162v-1349h191v566h522v-566h191V0H875" id="u"/><path d="M682 16c-209 0-323-80-324-285v-671H190v-142h170l58-282h120v282h432v142H538v652c2 114 60 155 182 155 106 0 209-16 297-34v137C921-4 806 16 682 16" id="v"/><path d="M904-1102c199 0 220 177 220 381V0H956v-686c-3-114 0-215-60-264-70-33-125-4-158 71-26 56-39 140-39 252V0H531v-686c-3-114-1-215-61-264-78-41-136 24-157 84-24 69-39 159-39 259V0H105c-3-360 6-732-6-1082h149c6 50 3 123 8 175 36-100 83-195 216-195 135 0 166 79 196 196 42-105 93-196 236-196" id="w"/><path d="M736-142h380V0H134v-142h422v-1200H267v-142h469v1342" id="x"/><g id="d"><use transform="matrix(0.0087890625,0,0,0.0087890625,0,0)" xlink:href="#u"/><use transform="matrix(0.0087890625,0,0,0.0087890625,10.8017578125,0)" xlink:href="#v"/><use transform="matrix(0.0087890625,0,0,0.0087890625,21.603515625,0)" xlink:href="#w"/><use transform="matrix(0.0087890625,0,0,0.0087890625,32.4052734375,0)" xlink:href="#x"/></g><path d="M162 0v-1349h919v156H353v422h668v154H353v461h769V0H162" id="y"/><g id="e"><use transform="matrix(0.026041666666666668,0,0,0.026041666666666668,0,0)" xlink:href="#y"/><use transform="matrix(0.026041666666666668,0,0,0.026041666666666668,32.005208333333336,0)" xlink:href="#x"/><use transform="matrix(0.026041666666666668,0,0,0.026041666666666668,64.01041666666667,0)" xlink:href="#w"/></g><path d="M802-711c201 25 350 118 350 331C1152-95 921 0 634 0H162v-1349c401 9 908-74 908 327 0 184-111 275-268 311zm-224-69c174-2 300-51 300-218 0-163-124-198-302-198H353v416h225zM353-153c281-2 612 44 606-244-5-271-329-233-606-234v478" id="z"/><path d="M839-1102c70 0 148 7 206 17v167c-112-18-268-36-363 15-129 69-208 203-208 395V0H294c-10-367 32-789-52-1082h171c21 75 41 161 48 250h5c67-152 152-270 373-270" id="A"/><path d="M615-1102c343 0 484 203 482 560-1 347-147 562-488 562-336 0-475-219-479-562-4-349 156-560 485-560zm-8 989c240 0 301-180 301-429 0-245-55-427-290-427-236 0-299 181-299 427 0 243 61 429 288 429" id="B"/><path d="M1018 0H814c-67-224-138-444-200-673C552-442 476-224 407 0H204L21-1082h178c43 310 105 601 126 933 54-225 128-425 193-638h193c63 212 134 415 185 638 22-336 90-622 136-933h176" id="C"/><path d="M617-1102c355 0 481 238 477 599H322c5 222 84 388 301 388 144 0 244-59 284-166l158 45C1002-72 854 20 623 20c-342 0-490-220-490-568 0-346 151-554 484-554zm291 461c-18-192-90-328-289-328-194 0-287 128-295 328h584" id="D"/><path d="M496 0v-299h235V0H496" id="E"/><path d="M1000-272c3 95 12 159 101 161 21 0 41-3 59-7V-6c-44 10-86 16-139 16-141 2-191-84-197-217h-6C748-76 648 20 446 20c-207 0-318-120-318-322 0-266 194-348 454-354l236-4c12-191-40-305-222-305-140 0-220 47-232 172l-188-17c33-204 181-292 423-292 255 0 401 118 401 364v466zm-683-27c0 109 63 184 175 182 166-3 259-96 306-217 24-65 20-120 20-200-232 7-501-28-501 235" id="F"/><path d="M706-1102c241 0 344 136 343 381V0H868v-695c1-168-57-273-220-268-190 6-283 138-283 336V0H185c-3-360 6-732-6-1082h170c4 54 7 126 8 185h3c63-121 164-204 346-205" id="G"/><path d="M865-914c-3-187-2-380-2-570h180v1261c0 76 1 155 6 223H877c-8-49-9-116-10-174h-5C801-44 708 26 530 26c-135 0-234-46-297-139s-95-232-95-419c0-377 131-566 392-566 176 0 271 63 335 184zm-286-51c-222 0-255 197-255 427 0 229 31 425 253 425 237 0 286-195 286-441 0-238-52-411-284-411" id="H"/><path d="M365-904c58-129 161-200 334-200 130 0 228 46 293 138s98 233 98 420c0 189-34 331-102 425S824 20 698 20c-170 0-275-64-336-184 0 55-3 116-9 164H179c5-68 6-147 6-223v-1261h180c-2 193 4 394-4 580h4zm283 791c221 0 256-197 256-427 0-229-34-425-254-425-236 0-285 195-285 441 0 237 53 411 283 411" id="I"/><path d="M932 0L611-444 288 0H94l415-556-397-526h199l300 421 298-421h201L713-558 1133 0H932" id="J"/><g id="f"><use transform="matrix(0.0087890625,0,0,0.0087890625,0,0)" xlink:href="#z"/><use transform="matrix(0.0087890625,0,0,0.0087890625,10.8017578125,0)" xlink:href="#A"/><use transform="matrix(0.0087890625,0,0,0.0087890625,21.603515625,0)" xlink:href="#B"/><use transform="matrix(0.0087890625,0,0,0.0087890625,32.4052734375,0)" xlink:href="#C"/><use transform="matrix(0.0087890625,0,0,0.0087890625,43.20703125,0)" xlink:href="#s"/><use transform="matrix(0.0087890625,0,0,0.0087890625,54.0087890625,0)" xlink:href="#D"/><use transform="matrix(0.0087890625,0,0,0.0087890625,64.810546875,0)" xlink:href="#A"/><use transform="matrix(0.0087890625,0,0,0.0087890625,75.6123046875,0)" xlink:href="#E"/><use transform="matrix(0.0087890625,0,0,0.0087890625,86.4140625,0)" xlink:href="#s"/><use transform="matrix(0.0087890625,0,0,0.0087890625,97.2158203125,0)" xlink:href="#F"/><use transform="matrix(0.0087890625,0,0,0.0087890625,108.017578125,0)" xlink:href="#G"/><use transform="matrix(0.0087890625,0,0,0.0087890625,118.8193359375,0)" xlink:href="#H"/><use transform="matrix(0.0087890625,0,0,0.0087890625,129.62109375,0)" xlink:href="#I"/><use transform="matrix(0.0087890625,0,0,0.0087890625,140.4228515625,0)" xlink:href="#B"/><use transform="matrix(0.0087890625,0,0,0.0087890625,151.224609375,0)" xlink:href="#J"/></g><path fill="#ccc" d="M473-1349c438-1 655 221 652 661C1122-268 945-8 532 0H162v-1349h311zm42 1193c308-4 416-205 418-532 2-330-131-509-459-505H353v1037h162" id="K"/><path fill="#ccc" d="M102-681c0-398 126-689 513-689 165 0 291 58 379 174s132 287 132 515c-1 318-88 554-298 657-123 61-317 58-438-3-206-104-288-341-288-654zm749 406c94-160 97-656-5-807-57-85-130-132-231-132-104 0-178 47-234 132-101 153-99 655 1 809 57 89 130 138 232 138 109 0 184-49 237-140" id="L"/><path fill="#ccc" d="M285-1169c8 382 2 780 4 1169H129v-1349h237c86 239 188 461 253 720 69-258 169-481 255-720h225V0H937c2-390-5-788 6-1169-75 255-170 488-259 729H547c-90-240-185-475-262-729" id="M"/><g id="g"><use transform="matrix(0.0087890625,0,0,0.0087890625,0,0)" xlink:href="#K"/><use transform="matrix(0.0087890625,0,0,0.0087890625,10.8017578125,0)" xlink:href="#L"/><use transform="matrix(0.0087890625,0,0,0.0087890625,21.603515625,0)" xlink:href="#M"/></g></defs></g></svg>