<?xml version="1.0"?>
<svg xmlns="http://www.w3.org/2000/svg" xmlns:xlink="http://www.w3.org/1999/xlink" viewBox="150 720 800 400" width="800" height="400"><g><path d="M270 1065c0-2.76 2.24-5 5-5h50c2.76 0 5 2.24 5 5v30c0 2.76-2.24 5-5 5h-50c-2.76 0-5-2.24-5-5z" stroke="#000" stroke-width="2" fill="#fff"/><use xlink:href="#e" transform="matrix(1,0,0,1,290,1059.9999999999998) translate(-6.20263671875 25.896484375)"/><path d="M210 944c0-2.76 2.24-5 5-5h50c2.76 0 5 2.24 5 5v30c0 2.76-2.24 5-5 5h-50c-2.76 0-5-2.24-5-5z" stroke="#000" stroke-width="2" fill="#fff"/><use xlink:href="#f" transform="matrix(1,0,0,1,230,939) translate(4.59912109375 25.896484375)"/><path d="M330 944c0-2.76 2.24-5 5-5h50c2.76 0 5 2.24 5 5v30c0 2.76-2.24 5-5 5h-50c-2.76 0-5-2.24-5-5z" stroke="#000" stroke-width="2" fill="#fff"/><use xlink:href="#g" transform="matrix(1,0,0,1,350,939) translate(-0.8017578125 25.896484375)"/><path d="M290 825c0-2.76 2.24-5 5-5h50c2.76 0 5 2.24 5 5v30c0 2.76-2.24 5-5 5h-50c-2.76 0-5-2.24-5-5z" stroke="#000" stroke-width="2" fill="#fff"/><use xlink:href="#h" transform="matrix(1,0,0,1,310,820) translate(-0.8017578125 25.896484375)"/><path d="M370 825c0-2.76 2.24-5 5-5h50c2.76 0 5 2.24 5 5v30c0 2.76-2.24 5-5 5h-50c-2.76 0-5-2.24-5-5z" stroke="#000" stroke-width="2" fill="#fff"/><use xlink:href="#h" transform="matrix(1,0,0,1,390,820) translate(-0.8017578125 25.896484375)"/><path d="M300 1059l-.07-2.37-.2-2.22-.35-2.07-.44-2-.57-1.9-.68-1.9-.82-1.84-.95-1.86-1.12-1.88-1.32-1.93-1.6-2.03-1.93-2.18-2.45-2.42-3.3-2.85-5.1-3.9-23.3-16.2-3.3-2.85-2.45-2.42-1.94-2.18-1.58-2.03-1.33-1.93-.42-.7" stroke="#000" stroke-width="2" fill="none"/><path d="M301.25 1060h-2.05l-.18-.78 1.96-.44zM249.12 995.64l-8.94 2.46.68-14.98z"/><path d="M250.7 996.24l-11.58 3.2L240 980zm-9.46.53l6.28-1.73-5.8-8.8z"/><path d="M300 1059l.07-2.37.2-2.22.35-2.07.44-2 .57-1.9.68-1.9.82-1.84.95-1.86 1.12-1.88 1.32-1.93 1.6-2.03 1.93-2.18 2.45-2.42 3.3-2.85 5.1-3.9 23.3-16.2 3.3-2.85 2.45-2.42 1.94-2.18 1.58-2.03 1.33-1.93.42-.7" stroke="#000" stroke-width="2" fill="none"/><path d="M300.98 1059.22l-.18.78h-2.05l.27-1.22zM359.82 998.1l-8.94-2.46 8.26-12.52z"/><path d="M360.88 999.43l-11.6-3.2L360 980zm-8.4-4.4l6.28 1.74-.48-10.53z"/><path d="M360 938l-.1-3.4-.3-3.07-.46-2.8-.6-2.6-.75-2.5-.9-2.37-1.06-2.35-1.25-2.35-1.5-2.44-1.88-2.62-2.48-3.05-4-4.3-13.48-13.56-2.48-3.05-1.87-2.63-1.5-2.45-1.24-2.36-.6-1.35" stroke="#000" stroke-width="2" fill="none"/><path d="M361.17 939h-2.02l-.14-.84 2-.32zM327.98 877.25l-9.1 1.82 1.76-14.9z"/><path d="M329.53 877.96l-11.8 2.36L320 861zm-9.5-.14l6.4-1.28-5.16-9.2z"/><path d="M360 938l.1-3.4.3-3.07.46-2.8.6-2.6.75-2.5.9-2.37 1.06-2.35 1.25-2.35 1.5-2.44 1.88-2.62 2.48-3.05 4-4.3 13.48-13.56 2.48-3.05 1.87-2.63 1.5-2.45 1.24-2.36.6-1.35" stroke="#000" stroke-width="2" fill="none"/><path d="M361 938.16l-.15.84h-2.02l.18-1.16zM401.1 879.07l-9.08-1.82 7.34-13.08z"/><path d="M402.26 880.32l-11.8-2.36L400 861zm-8.7-3.78l6.4 1.28-1.23-10.47z"/><path d="M170 765c0-2.76 2.24-5 5-5h270c2.76 0 5 2.24 5 5v31c0 2.76-2.24 5-5 5H175c-2.76 0-5-2.24-5-5z" stroke="#000" stroke-opacity="0" stroke-width="2" fill="#fff" fill-opacity="0"/><use xlink:href="#m" transform="matrix(1,0,0,1,190,760) translate(17.38330078125 25.896484375)"/><use xlink:href="#n" transform="matrix(1,0,0,1,190,760) translate(103.79736328125 25.896484375)"/><use xlink:href="#j" transform="matrix(1,0,0,1,190,760) translate(190.21142578125 25.896484375)"/><path d="M700 1065c0-2.76 2.24-5 5-5h50c2.76 0 5 2.24 5 5v30c0 2.76-2.24 5-5 5h-50c-2.76 0-5-2.24-5-5z" stroke="#000" stroke-width="2" fill="#fff"/><use xlink:href="#e" transform="matrix(1,0,0,1,720,1059.9999999999998) translate(-6.20263671875 25.896484375)"/><path d="M640 944c0-2.76 2.24-5 5-5h50c2.76 0 5 2.24 5 5v30c0 2.76-2.24 5-5 5h-50c-2.76 0-5-2.24-5-5z" stroke="#000" stroke-width="2" fill="#fff"/><use xlink:href="#f" transform="matrix(1,0,0,1,660,939) translate(4.59912109375 25.896484375)"/><path d="M760 944c0-2.76 2.24-5 5-5h50c2.76 0 5 2.24 5 5v30c0 2.76-2.24 5-5 5h-50c-2.76 0-5-2.24-5-5z" stroke="#000" stroke-width="2" fill="#fff"/><use xlink:href="#g" transform="matrix(1,0,0,1,780,939) translate(-0.8017578125 25.896484375)"/><path d="M680 825c0-2.76 2.24-5 5-5h50c2.76 0 5 2.24 5 5v30c0 2.76-2.24 5-5 5h-50c-2.76 0-5-2.24-5-5z" stroke="#000" stroke-width="2" fill="#fff"/><use xlink:href="#h" transform="matrix(1,0,0,1,700,820) translate(-0.8017578125 25.896484375)"/><path d="M760 825c0-2.76 2.24-5 5-5h50c2.76 0 5 2.24 5 5v30c0 2.76-2.24 5-5 5h-50c-2.76 0-5-2.24-5-5z" stroke="#000" stroke-width="2" fill="#fff"/><use xlink:href="#h" transform="matrix(1,0,0,1,780,820) translate(-0.8017578125 25.896484375)"/><path d="M730 1059l-.07-2.37-.2-2.22-.35-2.07-.44-2-.57-1.9-.68-1.9-.82-1.84-.95-1.86-1.12-1.88-1.32-1.93-1.6-2.03-1.93-2.18-2.45-2.42-3.3-2.85-5.1-3.9-23.3-16.2-3.3-2.85-2.45-2.42-1.94-2.18-1.58-2.03-1.33-1.93-.42-.7" stroke="#000" stroke-width="2" fill="none"/><path d="M731.25 1060h-2.05l-.18-.78 1.96-.44zM679.12 995.64l-8.94 2.46.68-14.98z"/><path d="M680.7 996.24l-11.58 3.2L670 980zm-9.46.53l6.28-1.73-5.8-8.8z"/><path d="M730 1059l.07-2.37.2-2.22.35-2.07.44-2 .57-1.9.68-1.9.82-1.84.95-1.86 1.12-1.88 1.32-1.93 1.6-2.03 1.93-2.18 2.45-2.42 3.3-2.85 5.1-3.9 23.3-16.2 3.3-2.85 2.45-2.42 1.94-2.18 1.58-2.03 1.33-1.93.42-.7" stroke="#000" stroke-width="2" fill="none"/><path d="M730.98 1059.22l-.18.78h-2.05l.27-1.22zM789.82 998.1l-8.94-2.46 8.26-12.52z"/><path d="M790.88 999.43l-11.6-3.2L790 980zm-8.4-4.4l6.28 1.74-.48-10.53z"/><path d="M790 938l-.05-1.7-.15-1.6-.25-1.54-.33-1.5-.42-1.46-.52-1.45-.62-1.44-.74-1.45-.87-1.48-1.03-1.52-1.22-1.6-1.47-1.67-1.8-1.8-2.2-1.97-2.86-2.22-3.85-2.63-5.8-3.46-37.44-19.45-3.85-2.63-2.85-2.23-2.22-1.98-1.8-1.8-1.45-1.67" stroke="#000" stroke-width="2" fill="none"/><path d="M791.35 939h-2.1l-.2-.7 1.9-.6zM720.43 875.8l-8.7 3.22-.6-15z"/><path d="M722.07 876.26l-11.27 4.18L710 861zm-9.4 1.35l6.12-2.26-6.55-8.27z"/><path d="M790 938v-58.76" stroke="#000" stroke-width="2" fill="none"/><path d="M791 939h-2v-1h2zM794.64 878.5h-9.28l4.64-14.26z"/><path d="M796 879.5h-12l6-18.5zm-9.26-2h6.52L790 867.47z"/><path d="M600 765c0-2.76 2.24-5 5-5h270c2.76 0 5 2.24 5 5v31c0 2.76-2.24 5-5 5H605c-2.76 0-5-2.24-5-5z" stroke="#000" stroke-opacity="0" stroke-width="2" fill="#fff" fill-opacity="0"/><use xlink:href="#o" transform="matrix(1,0,0,1,620,760) translate(33.5859375 25.896484375)"/><use xlink:href="#n" transform="matrix(1,0,0,1,620,760) translate(87.5947265625 25.896484375)"/><use xlink:href="#j" transform="matrix(1,0,0,1,620,760) translate(174.0087890625 25.896484375)"/><path d="M840 825c0-2.76 2.24-5 5-5h50c2.76 0 5 2.24 5 5v30c0 2.76-2.24 5-5 5h-50c-2.76 0-5-2.24-5-5z" stroke="#000" stroke-width="2" fill="#c7e8ac"/><use xlink:href="#h" transform="matrix(1,0,0,1,860,820) translate(-0.8017578125 25.896484375)"/><path d="M790 938l.05-1.7.15-1.6.25-1.54.33-1.5.42-1.46.52-1.45.62-1.44.74-1.45.87-1.48 1.03-1.52 1.22-1.6 1.47-1.67 1.8-1.8 2.2-1.97 2.86-2.22 3.85-2.63 5.8-3.46 37.44-19.45 3.85-2.63 2.85-2.23 2.22-1.98 1.8-1.8 1.45-1.67" stroke="#000" stroke-width="2" fill="none"/><path d="M790.96 938.3l-.22.7h-2.1l.4-1.3zM868.26 879.02l-8.7-3.22 9.32-11.77z"/><path d="M869.2 880.44l-11.27-4.18L870 861zm-8-5.1l6.12 2.27.43-10.53z"/><path d="M443.54 962.54c-1.96-1.96-1.96-5.12 0-7.08l32.92-32.92c1.96-1.96 3.54-1.3 3.54 1.46v10c0 2.76 2.24 5 5 5h70c2.76 0 5-2.24 5-5v-10c0-2.76 1.58-3.42 3.54-1.46l32.92 32.92c1.96 1.96 1.96 5.12 0 7.08l-32.92 32.92c-1.96 1.96-3.54 1.3-3.54-1.46v-10c0-2.76-2.24-5-5-5h-70c-2.76 0-5 2.24-5 5v10c0 2.76-1.58 3.42-3.54 1.46z" stroke="#a3d977" stroke-width="2" fill="#a3d977"/><g><use xlink:href="#p" transform="matrix(1,0,0,1,440,919.25) translate(48.396484375 45.396484375)"/></g><defs><path fill="#fff" d="M865-914c-3-187-2-380-2-570h180v1261c0 76 1 155 6 223H877c-8-49-9-116-10-174h-5C801-44 708 26 530 26c-135 0-234-46-297-139s-95-232-95-419c0-377 131-566 392-566 176 0 271 63 335 184zm-286-51c-222 0-255 197-255 427 0 229 31 425 253 425 237 0 286-195 286-441 0-238-52-411-284-411" id="q"/><path fill="#fff" d="M745-142h380V0H143v-142h422v-798H246v-142h499v940zM545-1292v-192h200v192H545" id="r"/><path fill="#fff" d="M715 0H502L69-1082h202c94 253 197 500 285 758 19 57 36 126 52 183 96-335 234-626 350-941h201" id="s"/><g id="a"><use transform="matrix(0.0087890625,0,0,0.0087890625,0,0)" xlink:href="#q"/><use transform="matrix(0.0087890625,0,0,0.0087890625,10.8017578125,0)" xlink:href="#r"/><use transform="matrix(0.0087890625,0,0,0.0087890625,21.603515625,0)" xlink:href="#s"/></g><path fill="#fff" d="M698-1104c312 3 392 244 392 558 0 315-82 566-392 566-169 0-277-65-331-184h-5c8 188 2 394 4 589H185V-858c0-76-1-156-6-224h175c6 52 9 120 10 178h4c58-122 150-202 330-200zm-49 991c225 0 255-203 255-433 0-225-32-419-253-419-236 0-285 192-285 441 0 237 53 411 283 411" id="t"/><use transform="matrix(0.0087890625,0,0,0.0087890625,0,0)" xlink:href="#t" id="b"/><path fill="#fff" d="M528 20c-247 0-343-132-343-381v-721h180v686c-4 177 45 284 224 277 194-8 279-136 279-336v-627h181c3 360-6 732 6 1082H885c-4-54-7-126-8-185h-3C809-64 714 20 528 20" id="u"/><path fill="#fff" d="M736-142h380V0H134v-142h422v-1200H267v-142h469v1342" id="v"/><g id="c"><use transform="matrix(0.0087890625,0,0,0.0087890625,0,0)" xlink:href="#u"/><use transform="matrix(0.0087890625,0,0,0.0087890625,10.8017578125,0)" xlink:href="#v"/></g><g id="d"><use transform="matrix(0.0087890625,0,0,0.0087890625,0,0)" xlink:href="#v"/><use transform="matrix(0.0087890625,0,0,0.0087890625,10.8017578125,0)" xlink:href="#r"/></g><path d="M865-914c-3-187-2-380-2-570h180v1261c0 76 1 155 6 223H877c-8-49-9-116-10-174h-5C801-44 708 26 530 26c-135 0-234-46-297-139s-95-232-95-419c0-377 131-566 392-566 176 0 271 63 335 184zm-286-51c-222 0-255 197-255 427 0 229 31 425 253 425 237 0 286-195 286-441 0-238-52-411-284-411" id="w"/><path d="M745-142h380V0H143v-142h422v-798H246v-142h499v940zM545-1292v-192h200v192H545" id="x"/><path d="M715 0H502L69-1082h202c94 253 197 500 285 758 19 57 36 126 52 183 96-335 234-626 350-941h201" id="y"/><g id="e"><use transform="matrix(0.0087890625,0,0,0.0087890625,0,0)" xlink:href="#w"/><use transform="matrix(0.0087890625,0,0,0.0087890625,10.8017578125,0)" xlink:href="#x"/><use transform="matrix(0.0087890625,0,0,0.0087890625,21.603515625,0)" xlink:href="#y"/></g><path d="M698-1104c312 3 392 244 392 558 0 315-82 566-392 566-169 0-277-65-331-184h-5c8 188 2 394 4 589H185V-858c0-76-1-156-6-224h175c6 52 9 120 10 178h4c58-122 150-202 330-200zm-49 991c225 0 255-203 255-433 0-225-32-419-253-419-236 0-285 192-285 441 0 237 53 411 283 411" id="z"/><use transform="matrix(0.0087890625,0,0,0.0087890625,0,0)" xlink:href="#z" id="f"/><path d="M528 20c-247 0-343-132-343-381v-721h180v686c-4 177 45 284 224 277 194-8 279-136 279-336v-627h181c3 360-6 732 6 1082H885c-4-54-7-126-8-185h-3C809-64 714 20 528 20" id="A"/><path d="M736-142h380V0H134v-142h422v-1200H267v-142h469v1342" id="B"/><g id="g"><use transform="matrix(0.0087890625,0,0,0.0087890625,0,0)" xlink:href="#A"/><use transform="matrix(0.0087890625,0,0,0.0087890625,10.8017578125,0)" xlink:href="#B"/></g><g id="h"><use transform="matrix(0.0087890625,0,0,0.0087890625,0,0)" xlink:href="#B"/><use transform="matrix(0.0087890625,0,0,0.0087890625,10.8017578125,0)" xlink:href="#x"/></g><path d="M713 0H515L10-1349h201C345-955 498-579 615-168c116-411 269-787 402-1181h201" id="C"/><path d="M839-1102c70 0 148 7 206 17v167c-112-18-268-36-363 15-129 69-208 203-208 395V0H294c-10-367 32-789-52-1082h171c21 75 41 161 48 250h5c67-152 152-270 373-270" id="D"/><path d="M682 16c-209 0-323-80-324-285v-671H190v-142h170l58-282h120v282h432v142H538v652c2 114 60 155 182 155 106 0 209-16 297-34v137C921-4 806 16 682 16" id="E"/><path d="M1000-272c3 95 12 159 101 161 21 0 41-3 59-7V-6c-44 10-86 16-139 16-141 2-191-84-197-217h-6C748-76 648 20 446 20c-207 0-318-120-318-322 0-266 194-348 454-354l236-4c12-191-40-305-222-305-140 0-220 47-232 172l-188-17c33-204 181-292 423-292 255 0 401 118 401 364v466zm-683-27c0 109 63 184 175 182 166-3 259-96 306-217 24-65 20-120 20-200-232 7-501-28-501 235" id="F"/><g id="i"><use transform="matrix(0.0087890625,0,0,0.0087890625,0,0)" xlink:href="#C"/><use transform="matrix(0.0087890625,0,0,0.0087890625,10.8017578125,0)" xlink:href="#x"/><use transform="matrix(0.0087890625,0,0,0.0087890625,21.603515625,0)" xlink:href="#D"/><use transform="matrix(0.0087890625,0,0,0.0087890625,32.4052734375,0)" xlink:href="#E"/><use transform="matrix(0.0087890625,0,0,0.0087890625,43.20703125,0)" xlink:href="#A"/><use transform="matrix(0.0087890625,0,0,0.0087890625,54.0087890625,0)" xlink:href="#F"/><use transform="matrix(0.0087890625,0,0,0.0087890625,64.810546875,0)" xlink:href="#B"/></g><path d="M473-1349c438-1 655 221 652 661C1122-268 945-8 532 0H162v-1349h311zm42 1193c308-4 416-205 418-532 2-330-131-509-459-505H353v1037h162" id="G"/><path d="M102-681c0-398 126-689 513-689 165 0 291 58 379 174s132 287 132 515c-1 318-88 554-298 657-123 61-317 58-438-3-206-104-288-341-288-654zm749 406c94-160 97-656-5-807-57-85-130-132-231-132-104 0-178 47-234 132-101 153-99 655 1 809 57 89 130 138 232 138 109 0 184-49 237-140" id="H"/><path d="M285-1169c8 382 2 780 4 1169H129v-1349h237c86 239 188 461 253 720 69-258 169-481 255-720h225V0H937c2-390-5-788 6-1169-75 255-170 488-259 729H547c-90-240-185-475-262-729" id="I"/><g id="j"><use transform="matrix(0.0087890625,0,0,0.0087890625,0,0)" xlink:href="#G"/><use transform="matrix(0.0087890625,0,0,0.0087890625,10.8017578125,0)" xlink:href="#H"/><use transform="matrix(0.0087890625,0,0,0.0087890625,21.603515625,0)" xlink:href="#I"/></g><g id="k"><use transform="matrix(0.0087890625,0,0,0.0087890625,0,0)" xlink:href="#G"/><use transform="matrix(0.0087890625,0,0,0.0087890625,10.8017578125,0)" xlink:href="#H"/><use transform="matrix(0.0087890625,0,0,0.0087890625,21.603515625,0)" xlink:href="#I"/></g><path d="M617-1102c355 0 481 238 477 599H322c5 222 84 388 301 388 144 0 244-59 284-166l158 45C1002-72 854 20 623 20c-342 0-490-220-490-568 0-346 151-554 484-554zm291 461c-18-192-90-328-289-328-194 0-287 128-295 328h584" id="J"/><path d="M706-1102c241 0 344 136 343 381V0H868v-695c1-168-57-273-220-268-190 6-283 138-283 336V0H185c-3-360 6-732-6-1082h170c4 54 7 126 8 185h3c63-121 164-204 346-205" id="K"/><g id="l"><use transform="matrix(0.0087890625,0,0,0.0087890625,0,0)" xlink:href="#D"/><use transform="matrix(0.0087890625,0,0,0.0087890625,10.8017578125,0)" xlink:href="#J"/><use transform="matrix(0.0087890625,0,0,0.0087890625,21.603515625,0)" xlink:href="#K"/><use transform="matrix(0.0087890625,0,0,0.0087890625,32.4052734375,0)" xlink:href="#w"/><use transform="matrix(0.0087890625,0,0,0.0087890625,43.20703125,0)" xlink:href="#J"/><use transform="matrix(0.0087890625,0,0,0.0087890625,54.0087890625,0)" xlink:href="#D"/></g><path d="M650-1214c-281 0-336 244-336 533 0 295 60 546 347 546 188 0 263-142 322-282l159 65C1058-155 935 20 659 20c-401 0-546-295-546-701 0-407 135-689 536-689 264 0 391 146 466 335l-168 65c-47-129-127-244-297-244" id="L"/><g id="m"><use transform="matrix(0.0087890625,0,0,0.0087890625,0,0)" xlink:href="#L"/><use transform="matrix(0.0087890625,0,0,0.0087890625,10.8017578125,0)" xlink:href="#A"/><use transform="matrix(0.0087890625,0,0,0.0087890625,21.603515625,0)" xlink:href="#D"/><use transform="matrix(0.0087890625,0,0,0.0087890625,32.4052734375,0)" xlink:href="#D"/><use transform="matrix(0.0087890625,0,0,0.0087890625,43.20703125,0)" xlink:href="#J"/><use transform="matrix(0.0087890625,0,0,0.0087890625,54.0087890625,0)" xlink:href="#K"/><use transform="matrix(0.0087890625,0,0,0.0087890625,64.810546875,0)" xlink:href="#E"/></g><g id="n"><use transform="matrix(0.0087890625,0,0,0.0087890625,0,0)" xlink:href="#C"/><use transform="matrix(0.0087890625,0,0,0.0087890625,10.8017578125,0)" xlink:href="#x"/><use transform="matrix(0.0087890625,0,0,0.0087890625,21.603515625,0)" xlink:href="#D"/><use transform="matrix(0.0087890625,0,0,0.0087890625,32.4052734375,0)" xlink:href="#E"/><use transform="matrix(0.0087890625,0,0,0.0087890625,43.20703125,0)" xlink:href="#A"/><use transform="matrix(0.0087890625,0,0,0.0087890625,54.0087890625,0)" xlink:href="#F"/><use transform="matrix(0.0087890625,0,0,0.0087890625,64.810546875,0)" xlink:href="#B"/></g><path d="M912-211c-10-84-18-177-18-274v-864h172V0H836L316-1130c7 79 16 167 16 254V0H162v-1349h222" id="M"/><path d="M932 0L611-444 288 0H94l415-556-397-526h199l300 421 298-421h201L713-558 1133 0H932" id="N"/><g id="o"><use transform="matrix(0.0087890625,0,0,0.0087890625,0,0)" xlink:href="#M"/><use transform="matrix(0.0087890625,0,0,0.0087890625,10.8017578125,0)" xlink:href="#J"/><use transform="matrix(0.0087890625,0,0,0.0087890625,21.603515625,0)" xlink:href="#N"/><use transform="matrix(0.0087890625,0,0,0.0087890625,32.4052734375,0)" xlink:href="#E"/></g><path d="M839-1335c-182-6-269 67-259 253h491v142H580V0H400v-940H138v-142h262c-15-293 132-408 418-402 94 2 200 7 281 21v145c-75-10-177-14-260-17" id="O"/><g id="p"><use transform="matrix(0.0087890625,0,0,0.0087890625,0,0)" xlink:href="#w"/><use transform="matrix(0.0087890625,0,0,0.0087890625,10.8017578125,0)" xlink:href="#x"/><use transform="matrix(0.0087890625,0,0,0.0087890625,21.603515625,0)" xlink:href="#O"/><use transform="matrix(0.0087890625,0,0,0.0087890625,32.4052734375,0)" xlink:href="#O"/></g></defs></g></svg>