<?xml version="1.0"?>
<svg xmlns="http://www.w3.org/2000/svg" xmlns:xlink="http://www.w3.org/1999/xlink" viewBox="0 0 400 450" width="400" height="450">
<path d="M100 285c0-2.76 2.24-5 5-5h50c2.76 0 5 2.24 5 5v30c0 2.76-2.24 5-5 5h-50c-2.76 0-5-2.24-5-5z" fill="#fff"/>
<path d="M102.84 280.68l.58-.43L105 280h3m4 0h6m4 0h6m4 0h6m4 0h6m4 0h3l2.2.72m2.12 2.12l.43.58.25 1.58v3m0 4v6m0 4v6m0 4v3l-.72 2.2m-2.12 2.12l-.58.43-1.58.25h-3m-4 0h-6m-4 0h-6m-4 0h-6m-4 0h-6m-4 0h-3l-2.2-.72m-2.12-2.12l-.43-.58L100 315v-3m0-4v-6m0-4v-6m0-4v-3l.72-2.2" stroke="#ccc" stroke-width="2" fill="none"/>
<use xlink:href="#a" transform="matrix(1,0,0,1,120,279.9999999999997) translate(-6.20263671875 25.896484375)"/>
<path d="M40 164c0-2.76 2.24-5 5-5h50c2.76 0 5 2.24 5 5v30c0 2.76-2.24 5-5 5H45c-2.76 0-5-2.24-5-5z" fill="#fff"/>
<path d="M42.84 159.68l.58-.43L45 159h3m4 0h6m4 0h6m4 0h6m4 0h6m4 0h3l2.2.72m2.12 2.12l.43.58.25 1.58v3m0 4v6m0 4v6m0 4v3l-.72 2.2m-2.12 2.12l-.58.43L95 199h-3m-4 0h-6m-4 0h-6m-4 0h-6m-4 0h-6m-4 0h-3l-2.2-.72m-2.12-2.12l-.43-.58L40 194v-3m0-4v-6m0-4v-6m0-4v-3l.72-2.2" stroke="#ccc" stroke-width="2" fill="none"/>
<use xlink:href="#b" transform="matrix(1,0,0,1,60,158.99999999999997) translate(4.59912109375 25.896484375)"/>
<path d="M160 164c0-2.76 2.24-5 5-5h50c2.76 0 5 2.24 5 5v30c0 2.76-2.24 5-5 5h-50c-2.76 0-5-2.24-5-5z" fill="#fff"/>
<path d="M162.84 159.68l.58-.43L165 159h3m4 0h6m4 0h6m4 0h6m4 0h6m4 0h3l2.2.72m2.12 2.12l.43.58.25 1.58v3m0 4v6m0 4v6m0 4v3l-.72 2.2m-2.12 2.12l-.58.43-1.58.25h-3m-4 0h-6m-4 0h-6m-4 0h-6m-4 0h-6m-4 0h-3l-2.2-.72m-2.12-2.12l-.43-.58L160 194v-3m0-4v-6m0-4v-6m0-4v-3l.72-2.2" stroke="#ccc" stroke-width="2" fill="none"/>
<use xlink:href="#c" transform="matrix(1,0,0,1,180,158.99999999999997) translate(-0.8017578125 25.896484375)"/>
<path d="M120 45c0-2.76 2.24-5 5-5h50c2.76 0 5 2.24 5 5v30c0 2.76-2.24 5-5 5h-50c-2.76 0-5-2.24-5-5z" fill="#fff"/>
<path d="M122.84 40.68l.58-.43L125 40h3m4 0h6m4 0h6m4 0h6m4 0h6m4 0h3l2.2.72m2.12 2.12l.43.58L180 45v3m0 4v6m0 4v6m0 4v3l-.72 2.2m-2.12 2.12l-.58.43L175 80h-3m-4 0h-6m-4 0h-6m-4 0h-6m-4 0h-6m-4 0h-3l-2.2-.72m-2.12-2.12l-.43-.58L120 75v-3m0-4v-6m0-4v-6m0-4v-3l.72-2.2" stroke="#ccc" stroke-width="2" fill="none"/>
<use xlink:href="#d" transform="matrix(1,0,0,1,140,39.99999999999997) translate(-0.8017578125 25.896484375)"/>
<path d="M200 45c0-2.76 2.24-5 5-5h50c2.76 0 5 2.24 5 5v30c0 2.76-2.24 5-5 5h-50c-2.76 0-5-2.24-5-5z" fill="#fff"/>
<path d="M202.84 40.68l.58-.43L205 40h3m4 0h6m4 0h6m4 0h6m4 0h6m4 0h3l2.2.72m2.12 2.12l.43.58L260 45v3m0 4v6m0 4v6m0 4v3l-.72 2.2m-2.12 2.12l-.58.43L255 80h-3m-4 0h-6m-4 0h-6m-4 0h-6m-4 0h-6m-4 0h-3l-2.2-.72m-2.12-2.12l-.43-.58L200 75v-3m0-4v-6m0-4v-6m0-4v-3l.72-2.2" stroke="#ccc" stroke-width="2" fill="none"/>
<use xlink:href="#d" transform="matrix(1,0,0,1,220,39.99999999999997) translate(-0.8017578125 25.896484375)"/>
<path d="M130 279l-.07-2.37-.2-2.22-.35-2.07-.44-2-.57-1.9-.68-1.9-.82-1.84-.95-1.86-1.12-1.88-1.32-1.93-1.6-2.03-1.93-2.18-2.45-2.42-3.3-2.85-5.1-3.9-23.3-16.2-3.3-2.85-2.45-2.42L78.1 222l-1.58-2.03-1.33-1.93-1.13-1.88-.95-1.85-.8-1.84-.7-1.88-.56-1.92-.44-2-.34-2.07-.2-2.23L70 200" fill="none"/>
<path d="M130 279l-.07-2.37-.08-.75m-.6-4.12l-.3-1.42-.58-1.92-.68-1.88-.33-.73m-1.88-3.7l-.7-1.14-1.32-1.93-1.6-2.03m-2.82-3.06l-1.56-1.54-3.06-2.65m-3.3-2.54l-2.05-1.55-3.03-2.1m-3.42-2.38l-5.14-3.57m-3.4-2.37l-5.14-3.57m-3.4-2.4l-3.06-2.66-1.56-1.55M78.1 222l-1.58-2.03-1.33-1.93-.7-1.14m-1.87-3.7l-.32-.74-.67-1.88-.57-1.92-.32-1.42m-.6-4.12l-.07-.75L70 200" stroke="#ccc" stroke-width="2" fill="none"/>
<path d="M131.25 280h-2.05l-.18-.78 1.96-.44zM70.98 199.78l-1.96.44-.27-1.22h2.05z" fill="#ccc"/>
<path d="M130 279l.07-2.37.2-2.22.35-2.07.44-2 .57-1.9.68-1.9.82-1.84.95-1.86 1.12-1.88 1.32-1.93 1.6-2.03 1.93-2.18 2.45-2.42 3.3-2.85 5.1-3.9 23.3-16.2 3.3-2.85 2.45-2.42 1.94-2.18 1.58-2.03 1.33-1.93 1.13-1.88.95-1.85.8-1.84.7-1.88.56-1.92.44-2 .34-2.07.2-2.23.08-2.37" fill="none"/>
<path d="M130 279l.07-2.37.08-.75m.6-4.12l.3-1.42.58-1.92.68-1.88.33-.73m1.88-3.7l.7-1.14 1.32-1.93 1.6-2.03m2.82-3.06l1.56-1.54 3.06-2.65m3.3-2.54l2.05-1.55 3.03-2.1m3.42-2.38l5.14-3.57m3.4-2.37l5.14-3.57m3.4-2.4l3.06-2.66 1.56-1.55m2.83-3.05l1.58-2.03 1.33-1.93.7-1.14m1.87-3.7l.32-.74.67-1.88.57-1.92.32-1.42m.6-4.12l.07-.75.07-2.37" stroke="#ccc" stroke-width="2" fill="none"/>
<path d="M130.98 279.22l-.18.78h-2.05l.27-1.22zM190.98 200.22l-1.96-.44.18-.78h2.05z" fill="#ccc"/>
<path d="M190 158l-.1-3.4-.3-3.07-.46-2.8-.6-2.6-.75-2.5-.9-2.37-1.06-2.35-1.25-2.35-1.5-2.44-1.88-2.62-2.48-3.05-4-4.3-13.48-13.56-2.48-3.05-1.87-2.63-1.5-2.45-1.24-2.36-1.06-2.36-.9-2.38-.73-2.48-.6-2.6-.46-2.8-.3-3.08-.1-3.4" fill="none"/>
<path d="M190 158l-.1-3m-.4-3.96l-.36-2.3-.6-2.62-.3-.93m-1.28-3.78l-.06-.16-1.06-2.35-1.25-2.35-.3-.5m-2.2-3.32l-.88-1.25-2.48-3.05-.36-.38m-2.72-2.92l-.93-1-3.26-3.28m-2.8-2.83l-4.23-4.25m-2.8-2.83l-.38-.37-2.48-3.05-.9-1.25m-2.17-3.34l-.3-.48-1.24-2.36-1.06-2.36-.06-.16m-1.3-3.77l-.27-.92-.6-2.6-.38-2.32m-.4-3.97l-.1-3" stroke="#ccc" stroke-width="2" fill="none"/>
<path d="M191.17 159h-2.02l-.14-.84 2-.32zM151 80.84l-2 .32-.17-1.16h2.02z" fill="#ccc"/>
<path d="M190 158l.1-3.4.3-3.07.46-2.8.6-2.6.75-2.5.9-2.37 1.06-2.35 1.25-2.35 1.5-2.44 1.88-2.62 2.48-3.05 4-4.3 13.48-13.56 2.48-3.05 1.87-2.63 1.5-2.45 1.24-2.36 1.06-2.36.9-2.38.73-2.48.6-2.6.46-2.8.3-3.08.1-3.4" fill="none"/>
<path d="M190 158l.1-3m.4-3.96l.36-2.3.6-2.62.3-.93m1.28-3.78l.06-.16 1.06-2.35 1.25-2.35.3-.5m2.2-3.32l.88-1.25 2.48-3.05.36-.38m2.72-2.92l.93-1 3.26-3.28m2.8-2.83l4.23-4.25m2.8-2.83l.38-.37 2.48-3.05.9-1.25m2.17-3.34l.3-.48 1.24-2.36 1.06-2.36.06-.16m1.3-3.77l.27-.92.6-2.6.38-2.32m.4-3.97l.1-3" stroke="#ccc" stroke-width="2" fill="none"/>
<path d="M191 158.16l-.15.84h-2.02l.18-1.16zM231 81.16l-2-.32.15-.84h2.02z" fill="#ccc"/>
<path d="M160 378.5c11.05 0 20 8.95 20 20s-8.95 20-20 20h-60c-11.05 0-20-8.95-20-20s8.95-20 20-20z" stroke="#000" stroke-width="2" fill="#d1bcd2"/>
<use xlink:href="#e" transform="matrix(1,0,0,1,90,378.49999999999994) translate(18.396484375 25.896484375)"/>
<path d="M180 373.4c0-2.76 2.24-5 5-5h230c2.76 0 5 2.24 5 5v50c0 2.76-2.24 5-5 5H185c-2.76 0-5-2.24-5-5z" stroke="#000" stroke-opacity="0" stroke-width="2" fill="#fff" fill-opacity="0"/>
<use xlink:href="#f" transform="matrix(1,0,0,1,200,368.4000000000001) translate(0 23.997395833333332)"/>
<use xlink:href="#g" transform="matrix(1,0,0,1,200,368.4000000000001) translate(8.001302083333334 23.997395833333332)"/>
<use xlink:href="#f" transform="matrix(1,0,0,1,200,368.4000000000001) translate(0 43.99739583333333)"/>
<use xlink:href="#h" transform="matrix(1,0,0,1,200,368.4000000000001) translate(8.001302083333334 43.99739583333333)"/>
<path d="M180 383.4c0-2.76 2.24-5 5-5h10c2.76 0 5 2.24 5 5v31c0 2.76-2.24 5-5 5h-10c-2.76 0-5-2.24-5-5z" fill="none"/>
<path d="M200 419.4c-1.42 0-2.56-1.15-2.56-2.56v-15.38c0-1.4-1.15-2.56-2.56-2.56 1.4 0 2.56-1.15 2.56-2.56v-15.38c0-1.4 1.14-2.56 2.56-2.56" stroke="#000" stroke-width="2" fill="none"/>
<path d="M130 377.5V321" fill="none"/>
<path d="M130 377.5v-2.83m0-3.76v-5.64m0-3.77v-5.66m0-3.77v-5.65m0-3.76V337m0-3.76v-5.65m0-3.78V321" stroke="#ccc" stroke-width="2" fill="none"/>
<path d="M131 378.5h-2v-1h2zM131 321h-2v-1h2z" fill="#ccc"/>
<defs>
    <path fill="#ccc" d="M865-914c-3-187-2-380-2-570h180v1261c0 76 1 155 6 223H877c-8-49-9-116-10-174h-5C801-44 708 26 530 26c-135 0-234-46-297-139s-95-232-95-419c0-377 131-566 392-566 176 0 271 63 335 184zm-286-51c-222 0-255 197-255 427 0 229 31 425 253 425 237 0 286-195 286-441 0-238-52-411-284-411" id="i"/>
    <path fill="#ccc" d="M745-142h380V0H143v-142h422v-798H246v-142h499v940zM545-1292v-192h200v192H545" id="j"/>
    <path fill="#ccc" d="M715 0H502L69-1082h202c94 253 197 500 285 758 19 57 36 126 52 183 96-335 234-626 350-941h201" id="k"/>
    <g id="a">
        <use transform="matrix(0.0087890625,0,0,0.0087890625,0,0)" xlink:href="#i"/>
        <use transform="matrix(0.0087890625,0,0,0.0087890625,10.8017578125,0)" xlink:href="#j"/>
        <use transform="matrix(0.0087890625,0,0,0.0087890625,21.603515625,0)" xlink:href="#k"/>
    </g>
    <path fill="#ccc" d="M698-1104c312 3 392 244 392 558 0 315-82 566-392 566-169 0-277-65-331-184h-5c8 188 2 394 4 589H185V-858c0-76-1-156-6-224h175c6 52 9 120 10 178h4c58-122 150-202 330-200zm-49 991c225 0 255-203 255-433 0-225-32-419-253-419-236 0-285 192-285 441 0 237 53 411 283 411" id="l"/>
    <use transform="matrix(0.0087890625,0,0,0.0087890625,0,0)" xlink:href="#l" id="b"/>
    <path fill="#ccc" d="M528 20c-247 0-343-132-343-381v-721h180v686c-4 177 45 284 224 277 194-8 279-136 279-336v-627h181c3 360-6 732 6 1082H885c-4-54-7-126-8-185h-3C809-64 714 20 528 20" id="m"/>
    <path fill="#ccc" d="M736-142h380V0H134v-142h422v-1200H267v-142h469v1342" id="n"/>
    <g id="c">
        <use transform="matrix(0.0087890625,0,0,0.0087890625,0,0)" xlink:href="#m"/>
        <use transform="matrix(0.0087890625,0,0,0.0087890625,10.8017578125,0)" xlink:href="#n"/>
    </g>
    <g id="d">
        <use transform="matrix(0.0087890625,0,0,0.0087890625,0,0)" xlink:href="#n"/>
        <use transform="matrix(0.0087890625,0,0,0.0087890625,10.8017578125,0)" xlink:href="#j"/>
    </g>
    <path d="M736-142h380V0H134v-142h422v-1200H267v-142h469v1342" id="o"/>
    <path d="M1000-272c3 95 12 159 101 161 21 0 41-3 59-7V-6c-44 10-86 16-139 16-141 2-191-84-197-217h-6C748-76 648 20 446 20c-207 0-318-120-318-322 0-266 194-348 454-354l236-4c12-191-40-305-222-305-140 0-220 47-232 172l-188-17c33-204 181-292 423-292 255 0 401 118 401 364v466zm-683-27c0 109 63 184 175 182 166-3 259-96 306-217 24-65 20-120 20-200-232 7-501-28-501 235" id="p"/>
    <path d="M147 0v-137l681-806H187v-139h844v137L349-139h719V0H147" id="q"/>
    <path d="M168 279c222 39 310-114 368-290L66-1082h192c120 299 249 590 362 896 115-301 235-597 351-896h190L705 0c-65 164-130 320-275 396-67 36-177 35-262 18V279" id="r"/>
    <g id="e">
        <use transform="matrix(0.0087890625,0,0,0.0087890625,0,0)" xlink:href="#o"/>
        <use transform="matrix(0.0087890625,0,0,0.0087890625,10.8017578125,0)" xlink:href="#p"/>
        <use transform="matrix(0.0087890625,0,0,0.0087890625,21.603515625,0)" xlink:href="#q"/>
        <use transform="matrix(0.0087890625,0,0,0.0087890625,32.4052734375,0)" xlink:href="#r"/>
    </g>
    <path d="M715 0H502L69-1082h202c94 253 197 500 285 758 19 57 36 126 52 183 96-335 234-626 350-941h201" id="s"/>
    <path d="M745-142h380V0H143v-142h422v-798H246v-142h499v940zM545-1292v-192h200v192H545" id="t"/>
    <path d="M617-1102c355 0 481 238 477 599H322c5 222 84 388 301 388 144 0 244-59 284-166l158 45C1002-72 854 20 623 20c-342 0-490-220-490-568 0-346 151-554 484-554zm291 461c-18-192-90-328-289-328-194 0-287 128-295 328h584" id="u"/>
    <path d="M1018 0H814c-67-224-138-444-200-673C552-442 476-224 407 0H204L21-1082h178c43 310 105 601 126 933 54-225 128-425 193-638h193c63 212 134 415 185 638 22-336 90-622 136-933h176" id="v"/>
    <path d="M650-1214c-281 0-336 244-336 533 0 295 60 546 347 546 188 0 263-142 322-282l159 65C1058-155 935 20 659 20c-401 0-546-295-546-701 0-407 135-689 536-689 264 0 391 146 466 335l-168 65c-47-129-127-244-297-244" id="w"/>
    <path d="M648-963c-190 6-283 138-283 336V0H185v-1484h181c-2 197 6 404-9 587h3c62-120 159-205 339-205 242 0 351 135 350 381V0H868v-695c1-168-57-273-220-268" id="x"/>
    <path d="M839-1102c70 0 148 7 206 17v167c-112-18-268-36-363 15-129 69-208 203-208 395V0H294c-10-367 32-789-52-1082h171c21 75 41 161 48 250h5c67-152 152-270 373-270" id="y"/>
    <path d="M1034 0L896-382H333L196 0H0l510-1349h217L1228 0h-194zM847-531c-77-225-157-447-231-674-69 231-154 451-232 674h463" id="z"/>
    <path d="M682 16c-209 0-323-80-324-285v-671H190v-142h170l58-282h120v282h432v142H538v652c2 114 60 155 182 155 106 0 209-16 297-34v137C921-4 806 16 682 16" id="A"/>
    <path d="M873-819c-18-114-119-146-250-146-163 0-245 50-245 151 0 151 170 148 294 185 182 54 388 94 388 320 0 240-189 325-439 329-245 4-410-69-454-268l159-31c24 133 136 168 295 165 144-2 270-31 270-171 0-164-195-160-331-202-167-52-350-87-350-299 0-218 173-315 413-313 220 2 373 77 412 260" id="B"/>
    <g id="g">
        <use transform="matrix(0.006510416666666667,0,0,0.006510416666666667,0,0)" xlink:href="#s"/>
        <use transform="matrix(0.006510416666666667,0,0,0.006510416666666667,8.001302083333334,0)" xlink:href="#t"/>
        <use transform="matrix(0.006510416666666667,0,0,0.006510416666666667,16.002604166666668,0)" xlink:href="#u"/>
        <use transform="matrix(0.006510416666666667,0,0,0.006510416666666667,24.00390625,0)" xlink:href="#v"/>
        <use transform="matrix(0.006510416666666667,0,0,0.006510416666666667,32.005208333333336,0)" xlink:href="#w"/>
        <use transform="matrix(0.006510416666666667,0,0,0.006510416666666667,40.00651041666667,0)" xlink:href="#x"/>
        <use transform="matrix(0.006510416666666667,0,0,0.006510416666666667,48.00781250000001,0)" xlink:href="#p"/>
        <use transform="matrix(0.006510416666666667,0,0,0.006510416666666667,56.00911458333335,0)" xlink:href="#t"/>
        <use transform="matrix(0.006510416666666667,0,0,0.006510416666666667,64.01041666666667,0)" xlink:href="#y"/>
        <use transform="matrix(0.006510416666666667,0,0,0.006510416666666667,72.01171875,0)" xlink:href="#z"/>
        <use transform="matrix(0.006510416666666667,0,0,0.006510416666666667,80.01302083333333,0)" xlink:href="#o"/>
        <use transform="matrix(0.006510416666666667,0,0,0.006510416666666667,88.01432291666666,0)" xlink:href="#A"/>
        <use transform="matrix(0.006510416666666667,0,0,0.006510416666666667,96.01562499999999,0)" xlink:href="#B"/>
    </g>
    <path d="M410 425v-1909h547v139H590V286h367v139H410" id="C"/>
    <path d="M908-845H766l-40-639h224zm-449 0H318l-41-639h224" id="D"/>
    <path d="M259 363l169-662h265L382 363H259" id="E"/>
    <path d="M631 20c-350 0-501-215-501-562 0-355 162-560 502-560 250 0 399 118 446 323l-192 14c-23-124-109-196-262-196-242 0-305 171-305 415 1 245 61 427 304 427 151 0 248-77 267-215l190 12C1039-107 883 20 631 20" id="F"/>
    <path d="M365-904c58-129 161-200 334-200 130 0 228 46 293 138s98 233 98 420c0 189-34 331-102 425S824 20 698 20c-170 0-275-64-336-184 0 55-3 116-9 164H179c5-68 6-147 6-223v-1261h180c-2 193 4 394-4 580h4zm283 791c221 0 256-197 256-427 0-229-34-425-254-425-236 0-285 195-285 441 0 237 53 411 283 411" id="G"/>
    <path d="M528 20c-247 0-343-132-343-381v-721h180v686c-4 177 45 284 224 277 194-8 279-136 279-336v-627h181c3 360-6 732 6 1082H885c-4-54-7-126-8-185h-3C809-64 714 20 528 20" id="H"/>
    <path d="M865-914c-3-187-2-380-2-570h180v1261c0 76 1 155 6 223H877c-8-49-9-116-10-174h-5C801-44 708 26 530 26c-135 0-234-46-297-139s-95-232-95-419c0-377 131-566 392-566 176 0 271 63 335 184zm-286-51c-222 0-255 197-255 427 0 229 31 425 253 425 237 0 286-195 286-441 0-238-52-411-284-411" id="I"/>
    <path d="M270 425V286h367v-1631H270v-139h547V425H270" id="J"/>
    <g id="h">
        <use transform="matrix(0.006510416666666667,0,0,0.006510416666666667,0,0)" xlink:href="#C"/>
        <use transform="matrix(0.006510416666666667,0,0,0.006510416666666667,8.001302083333334,0)" xlink:href="#D"/>
        <use transform="matrix(0.006510416666666667,0,0,0.006510416666666667,16.002604166666668,0)" xlink:href="#B"/>
        <use transform="matrix(0.006510416666666667,0,0,0.006510416666666667,24.00390625,0)" xlink:href="#u"/>
        <use transform="matrix(0.006510416666666667,0,0,0.006510416666666667,32.005208333333336,0)" xlink:href="#t"/>
        <use transform="matrix(0.006510416666666667,0,0,0.006510416666666667,40.00651041666667,0)" xlink:href="#q"/>
        <use transform="matrix(0.006510416666666667,0,0,0.006510416666666667,48.00781250000001,0)" xlink:href="#p"/>
        <use transform="matrix(0.006510416666666667,0,0,0.006510416666666667,56.00911458333335,0)" xlink:href="#D"/>
        <use transform="matrix(0.006510416666666667,0,0,0.006510416666666667,64.01041666666667,0)" xlink:href="#E"/>
        <use transform="matrix(0.006510416666666667,0,0,0.006510416666666667,72.01171875,0)" xlink:href="#D"/>
        <use transform="matrix(0.006510416666666667,0,0,0.006510416666666667,80.01302083333333,0)" xlink:href="#F"/>
        <use transform="matrix(0.006510416666666667,0,0,0.006510416666666667,88.01432291666666,0)" xlink:href="#x"/>
        <use transform="matrix(0.006510416666666667,0,0,0.006510416666666667,96.01562499999999,0)" xlink:href="#p"/>
        <use transform="matrix(0.006510416666666667,0,0,0.006510416666666667,104.01692708333331,0)" xlink:href="#G"/>
        <use transform="matrix(0.006510416666666667,0,0,0.006510416666666667,112.01822916666664,0)" xlink:href="#H"/>
        <use transform="matrix(0.006510416666666667,0,0,0.006510416666666667,120.01953124999999,0)" xlink:href="#I"/>
        <use transform="matrix(0.006510416666666667,0,0,0.006510416666666667,128.02083333333331,0)" xlink:href="#p"/>
        <use transform="matrix(0.006510416666666667,0,0,0.006510416666666667,136.02213541666666,0)" xlink:href="#t"/>
        <use transform="matrix(0.006510416666666667,0,0,0.006510416666666667,144.0234375,0)" xlink:href="#D"/>
        <use transform="matrix(0.006510416666666667,0,0,0.006510416666666667,152.02473958333334,0)" xlink:href="#J"/>
    </g>
</defs>
</svg>
