<?xml version="1.0"?>
<svg xmlns="http://www.w3.org/2000/svg" xmlns:xlink="http://www.w3.org/1999/xlink" viewBox="410 1160 300 400" width="300" height="400"><g><path d="M500 1504.5c0-2.76 2.24-5 5-5h50c2.76 0 5 2.24 5 5v30c0 2.76-2.24 5-5 5h-50c-2.76 0-5-2.24-5-5z" stroke="#000" stroke-width="2"/><use xlink:href="#a" transform="matrix(1,0,0,1,520,1499.5) translate(-6.20263671875 25.896484375)"/><path d="M440 1383.5c0-2.76 2.24-5 5-5h50c2.76 0 5 2.24 5 5v30c0 2.76-2.24 5-5 5h-50c-2.76 0-5-2.24-5-5z" stroke="#000" stroke-width="2"/><use xlink:href="#b" transform="matrix(1,0,0,1,460,1378.5) translate(4.59912109375 25.896484375)"/><path d="M560 1383.5c0-2.76 2.24-5 5-5h50c2.76 0 5 2.24 5 5v30c0 2.76-2.24 5-5 5h-50c-2.76 0-5-2.24-5-5z" stroke="#000" stroke-width="2"/><use xlink:href="#c" transform="matrix(1,0,0,1,580,1378.5) translate(-0.8017578125 25.896484375)"/><path d="M480 1263c0-2.76 2.24-5 5-5h50c2.76 0 5 2.24 5 5v30c0 2.76-2.24 5-5 5h-50c-2.76 0-5-2.24-5-5z" stroke="#000" stroke-width="2"/><use xlink:href="#d" transform="matrix(1,0,0,1,500,1258) translate(-0.8017578125 25.896484375)"/><path d="M560 1263c0-2.76 2.24-5 5-5h50c2.76 0 5 2.24 5 5v30c0 2.76-2.24 5-5 5h-50c-2.76 0-5-2.24-5-5z" stroke="#000" stroke-width="2"/><use xlink:href="#d" transform="matrix(1,0,0,1,580,1258) translate(-0.8017578125 25.896484375)"/><path d="M530 1498.5l-.07-2.37-.2-2.22-.35-2.07-.44-2-.57-1.9-.68-1.9-.82-1.84-.95-1.86-1.12-1.88-1.32-1.93-1.6-2.03-1.93-2.18-2.45-2.42-3.3-2.85-5.1-3.9-23.3-16.2-3.3-2.85-2.45-2.42-1.94-2.18-1.58-2.03-1.33-1.93-.42-.7" stroke="#000" stroke-width="2" fill="none"/><path d="M531.25 1499.5h-2.05l-.18-.78 1.96-.44zM479.12 1435.14l-8.94 2.46.68-14.98z"/><path d="M480.7 1435.74l-11.58 3.2.88-19.44zm-9.46.53l6.28-1.73-5.8-8.8z"/><path d="M530 1498.5l.07-2.37.2-2.22.35-2.07.44-2 .57-1.9.68-1.9.82-1.84.95-1.86 1.12-1.88 1.32-1.93 1.6-2.03 1.93-2.18 2.45-2.42 3.3-2.85 5.1-3.9 23.3-16.2 3.3-2.85 2.45-2.42 1.94-2.18 1.58-2.03 1.33-1.93.42-.7" stroke="#000" stroke-width="2" fill="none"/><path d="M530.98 1498.72l-.18.78h-2.05l.27-1.22zM589.82 1437.6l-8.94-2.46 8.26-12.52z"/><path d="M590.88 1438.93l-11.6-3.2L590 1419.5zm-8.4-4.4l6.28 1.74-.48-10.53z"/><path d="M590 1377.5l-.05-1.76-.16-1.66-.26-1.6-.35-1.55-.45-1.52-.53-1.5-.64-1.48-.77-1.5-.9-1.53-1.05-1.58-1.26-1.64-1.52-1.73-1.85-1.86-2.3-2.05-2.95-2.3-4.02-2.76-6.17-3.68-35.76-18.8-4.02-2.77-2.95-2.3-2.3-2.04-1.85-1.85-1.5-1.73-.4-.5" stroke="#000" stroke-width="2" fill="none"/><path d="M591.33 1378.5h-2.08l-.2-.72 1.9-.56zM520.27 1313.9l-8.73 3.14-.45-15z"/><path d="M521.9 1314.4l-11.32 4.05L510 1299zm-9.4 1.23l6.14-2.2-6.46-8.34z"/><path d="M590 1377.5v-60.26" stroke="#000" stroke-width="2" fill="none"/><path d="M591 1378.5h-2v-1h2zM594.64 1316.5h-9.28l4.64-14.26z"/><path d="M596 1317.5h-12l6-18.5zm-9.26-2h6.52l-3.26-10.03z"/><path d="M400 1205c0-2.76 2.24-5 5-5h270c2.76 0 5 2.24 5 5v31c0 2.76-2.24 5-5 5H405c-2.76 0-5-2.24-5-5z" stroke="#000" stroke-opacity="0" stroke-width="2" fill="#fff" fill-opacity="0"/><use xlink:href="#k" transform="matrix(1,0,0,1,420,1200) translate(103.79736328125 25.896484375)"/><path d="M640 1263c0-2.76 2.24-5 5-5h50c2.76 0 5 2.24 5 5v30c0 2.76-2.24 5-5 5h-50c-2.76 0-5-2.24-5-5z" stroke="#7ab648" stroke-width="2" fill="#7ab648"/><use xlink:href="#d" transform="matrix(1,0,0,1,660,1258) translate(-0.8017578125 25.896484375)"/><path d="M590 1377.5l.06-1.82.16-1.73.27-1.65.35-1.6.46-1.57.58-1.54.68-1.56.8-1.55.95-1.6 1.14-1.63 1.35-1.7 1.62-1.8 2-1.96 2.53-2.16 3.32-2.5 4.7-3.1 8.2-4.65 28.36-14.94 4.7-3.1 3.32-2.5 2.53-2.17 2-1.96 1.63-1.8.85-1.07" stroke="#7ab648" stroke-width="2" fill="none"/><path d="M590.96 1377.78l-.2.72h-2.1l.38-1.28zM667.05 1317.05l-8.74-3.1 9.12-11.9z" fill="#7ab648"/><path d="M668 1318.45l-11.32-4L668.5 1299zm-8.06-4.97l6.14 2.17.27-10.55z" fill="#7ab648"/><defs><path fill="#fff" d="M865-914c-3-187-2-380-2-570h180v1261c0 76 1 155 6 223H877c-8-49-9-116-10-174h-5C801-44 708 26 530 26c-135 0-234-46-297-139s-95-232-95-419c0-377 131-566 392-566 176 0 271 63 335 184zm-286-51c-222 0-255 197-255 427 0 229 31 425 253 425 237 0 286-195 286-441 0-238-52-411-284-411" id="q"/><path fill="#fff" d="M745-142h380V0H143v-142h422v-798H246v-142h499v940zM545-1292v-192h200v192H545" id="r"/><path fill="#fff" d="M715 0H502L69-1082h202c94 253 197 500 285 758 19 57 36 126 52 183 96-335 234-626 350-941h201" id="s"/><g id="a"><use transform="matrix(0.0087890625,0,0,0.0087890625,0,0)" xlink:href="#q"/><use transform="matrix(0.0087890625,0,0,0.0087890625,10.8017578125,0)" xlink:href="#r"/><use transform="matrix(0.0087890625,0,0,0.0087890625,21.603515625,0)" xlink:href="#s"/></g><path fill="#fff" d="M698-1104c312 3 392 244 392 558 0 315-82 566-392 566-169 0-277-65-331-184h-5c8 188 2 394 4 589H185V-858c0-76-1-156-6-224h175c6 52 9 120 10 178h4c58-122 150-202 330-200zm-49 991c225 0 255-203 255-433 0-225-32-419-253-419-236 0-285 192-285 441 0 237 53 411 283 411" id="t"/><use transform="matrix(0.0087890625,0,0,0.0087890625,0,0)" xlink:href="#t" id="b"/><path fill="#fff" d="M528 20c-247 0-343-132-343-381v-721h180v686c-4 177 45 284 224 277 194-8 279-136 279-336v-627h181c3 360-6 732 6 1082H885c-4-54-7-126-8-185h-3C809-64 714 20 528 20" id="u"/><path fill="#fff" d="M736-142h380V0H134v-142h422v-1200H267v-142h469v1342" id="v"/><g id="c"><use transform="matrix(0.0087890625,0,0,0.0087890625,0,0)" xlink:href="#u"/><use transform="matrix(0.0087890625,0,0,0.0087890625,10.8017578125,0)" xlink:href="#v"/></g><g id="d"><use transform="matrix(0.0087890625,0,0,0.0087890625,0,0)" xlink:href="#v"/><use transform="matrix(0.0087890625,0,0,0.0087890625,10.8017578125,0)" xlink:href="#r"/></g><path d="M473-1349c438-1 655 221 652 661C1122-268 945-8 532 0H162v-1349h311zm42 1193c308-4 416-205 418-532 2-330-131-509-459-505H353v1037h162" id="G"/><path d="M102-681c0-398 126-689 513-689 165 0 291 58 379 174s132 287 132 515c-1 318-88 554-298 657-123 61-317 58-438-3-206-104-288-341-288-654zm749 406c94-160 97-656-5-807-57-85-130-132-231-132-104 0-178 47-234 132-101 153-99 655 1 809 57 89 130 138 232 138 109 0 184-49 237-140" id="H"/><path d="M285-1169c8 382 2 780 4 1169H129v-1349h237c86 239 188 461 253 720 69-258 169-481 255-720h225V0H937c2-390-5-788 6-1169-75 255-170 488-259 729H547c-90-240-185-475-262-729" id="I"/><g id="j"><use transform="matrix(0.0087890625,0,0,0.0087890625,0,0)" xlink:href="#G"/><use transform="matrix(0.0087890625,0,0,0.0087890625,10.8017578125,0)" xlink:href="#H"/><use transform="matrix(0.0087890625,0,0,0.0087890625,21.603515625,0)" xlink:href="#I"/></g><g id="k"><use transform="matrix(0.0087890625,0,0,0.0087890625,0,0)" xlink:href="#G"/><use transform="matrix(0.0087890625,0,0,0.0087890625,10.8017578125,0)" xlink:href="#H"/><use transform="matrix(0.0087890625,0,0,0.0087890625,21.603515625,0)" xlink:href="#I"/></g></defs></g></svg>