<?xml version="1.0"?>
<svg xmlns="http://www.w3.org/2000/svg" xmlns:xlink="http://www.w3.org/1999/xlink" viewBox="150 200 700 400" width="700" height="400"><g><path d="M660 545c0-2.76 2.24-5 5-5h50c2.76 0 5 2.24 5 5v30c0 2.76-2.24 5-5 5h-50c-2.76 0-5-2.24-5-5z" stroke="#000" stroke-width="2"/><use xlink:href="#a" transform="matrix(1,0,0,1,680,540) translate(-6.20263671875 25.896484375)"/><path d="M600 424c0-2.76 2.24-5 5-5h50c2.76 0 5 2.24 5 5v30c0 2.76-2.24 5-5 5h-50c-2.76 0-5-2.24-5-5z" stroke="#000" stroke-width="2"/><use xlink:href="#b" transform="matrix(1,0,0,1,620,419.0000000000001) translate(4.59912109375 25.896484375)"/><path d="M720 424c0-2.76 2.24-5 5-5h50c2.76 0 5 2.24 5 5v30c0 2.76-2.24 5-5 5h-50c-2.76 0-5-2.24-5-5z" stroke="#000" stroke-width="2"/><use xlink:href="#c" transform="matrix(1,0,0,1,740,419.0000000000001) translate(-0.8017578125 25.896484375)"/><path d="M680 305c0-2.76 2.24-5 5-5h50c2.76 0 5 2.24 5 5v30c0 2.76-2.24 5-5 5h-50c-2.76 0-5-2.24-5-5z" stroke="#000" stroke-width="2"/><use xlink:href="#d" transform="matrix(1,0,0,1,700,300.0000000000001) translate(-0.8017578125 25.896484375)"/><path d="M760 305c0-2.76 2.24-5 5-5h50c2.76 0 5 2.24 5 5v30c0 2.76-2.24 5-5 5h-50c-2.76 0-5-2.24-5-5z" stroke="#000" stroke-width="2"/><use xlink:href="#d" transform="matrix(1,0,0,1,780,300.0000000000001) translate(-0.8017578125 25.896484375)"/><path d="M690 539l-.07-2.37-.2-2.22-.35-2.07-.44-2-.57-1.9-.68-1.9-.82-1.84-.95-1.86-1.12-1.88-1.32-1.93-1.6-2.03-1.93-2.18-2.45-2.42-3.3-2.85-5.1-3.9-23.3-16.2-3.3-2.85-2.45-2.42-1.94-2.18-1.58-2.03-1.33-1.93-.42-.7" stroke="#000" stroke-width="2" fill="none"/><path d="M691.25 540h-2.05l-.18-.78 1.96-.44zM639.12 475.64l-8.94 2.46.68-14.98z"/><path d="M640.7 476.24l-11.58 3.2L630 460zm-9.46.53l6.28-1.73-5.8-8.8z"/><path d="M690 539l.07-2.37.2-2.22.35-2.07.44-2 .57-1.9.68-1.9.82-1.84.95-1.86 1.12-1.88 1.32-1.93 1.6-2.03 1.93-2.18 2.45-2.42 3.3-2.85 5.1-3.9 23.3-16.2 3.3-2.85 2.45-2.42 1.94-2.18 1.58-2.03 1.33-1.93.42-.7" stroke="#000" stroke-width="2" fill="none"/><path d="M690.98 539.22l-.18.78h-2.05l.27-1.22zM749.82 478.1l-8.94-2.46 8.26-12.52z"/><path d="M750.88 479.43l-11.6-3.2L750 460zm-8.4-4.4l6.28 1.74-.48-10.53z"/><path d="M750 418l-.1-3.4-.3-3.07-.46-2.8-.6-2.6-.75-2.5-.9-2.37-1.06-2.35-1.25-2.35-1.5-2.44-1.88-2.62-2.48-3.05-4-4.3-13.48-13.56-2.48-3.05-1.87-2.63-1.5-2.45-1.24-2.36-.6-1.35" stroke="#000" stroke-width="2" fill="none"/><path d="M751.17 419h-2.02l-.14-.84 2-.32zM717.98 357.25l-9.1 1.82 1.76-14.9z"/><path d="M719.53 357.96l-11.8 2.36L710 341zm-9.5-.14l6.4-1.28-5.16-9.2z"/><path d="M750 418l.1-3.4.3-3.07.46-2.8.6-2.6.75-2.5.9-2.37 1.06-2.35 1.25-2.35 1.5-2.44 1.88-2.62 2.48-3.05 4-4.3 13.48-13.56 2.48-3.05 1.87-2.63 1.5-2.45 1.24-2.36.6-1.35" stroke="#000" stroke-width="2" fill="none"/><path d="M751 418.16l-.15.84h-2.02l.18-1.16zM791.1 359.07l-9.08-1.82 7.34-13.08z"/><path d="M792.26 360.32l-11.8-2.36L790 341zm-8.7-3.78l6.4 1.28-1.23-10.47z"/><path d="M240 545c0-2.76 2.24-5 5-5h50c2.76 0 5 2.24 5 5v30c0 2.76-2.24 5-5 5h-50c-2.76 0-5-2.24-5-5z" stroke="#000" stroke-width="2" fill="#fff"/><use xlink:href="#e" transform="matrix(1,0,0,1,260,539.9999999999998) translate(-6.20263671875 25.896484375)"/><path d="M180 424c0-2.76 2.24-5 5-5h50c2.76 0 5 2.24 5 5v30c0 2.76-2.24 5-5 5h-50c-2.76 0-5-2.24-5-5z" stroke="#000" stroke-width="2" fill="#fff"/><use xlink:href="#f" transform="matrix(1,0,0,1,200,419) translate(4.59912109375 25.896484375)"/><path d="M300 424c0-2.76 2.24-5 5-5h50c2.76 0 5 2.24 5 5v30c0 2.76-2.24 5-5 5h-50c-2.76 0-5-2.24-5-5z" stroke="#000" stroke-width="2" fill="#fff"/><use xlink:href="#g" transform="matrix(1,0,0,1,320,419) translate(-0.8017578125 25.896484375)"/><path d="M260 305c0-2.76 2.24-5 5-5h50c2.76 0 5 2.24 5 5v30c0 2.76-2.24 5-5 5h-50c-2.76 0-5-2.24-5-5z" stroke="#000" stroke-width="2" fill="#fff"/><use xlink:href="#h" transform="matrix(1,0,0,1,280,300) translate(-0.8017578125 25.896484375)"/><path d="M340 305c0-2.76 2.24-5 5-5h50c2.76 0 5 2.24 5 5v30c0 2.76-2.24 5-5 5h-50c-2.76 0-5-2.24-5-5z" stroke="#000" stroke-width="2" fill="#fff"/><use xlink:href="#h" transform="matrix(1,0,0,1,360,300) translate(-0.8017578125 25.896484375)"/><path d="M270 539l-.07-2.37-.2-2.22-.35-2.07-.44-2-.57-1.9-.68-1.9-.82-1.84-.95-1.86-1.12-1.88-1.32-1.93-1.6-2.03-1.93-2.18-2.45-2.42-3.3-2.85-5.1-3.9-23.3-16.2-3.3-2.85-2.45-2.42-1.94-2.18-1.58-2.03-1.33-1.93-.42-.7" stroke="#000" stroke-width="2" fill="none"/><path d="M271.25 540h-2.05l-.18-.78 1.96-.44zM219.12 475.64l-8.94 2.46.68-14.98z"/><path d="M220.7 476.24l-11.58 3.2L210 460zm-9.46.53l6.28-1.73-5.8-8.8z"/><path d="M270 539l.07-2.37.2-2.22.35-2.07.44-2 .57-1.9.68-1.9.82-1.84.95-1.86 1.12-1.88 1.32-1.93 1.6-2.03 1.93-2.18 2.45-2.42 3.3-2.85 5.1-3.9 23.3-16.2 3.3-2.85 2.45-2.42 1.94-2.18 1.58-2.03 1.33-1.93.42-.7" stroke="#000" stroke-width="2" fill="none"/><path d="M270.98 539.22l-.18.78h-2.05l.27-1.22zM329.82 478.1l-8.94-2.46 8.26-12.52z"/><path d="M330.88 479.43l-11.6-3.2L330 460zm-8.4-4.4l6.28 1.74-.48-10.53z"/><path d="M330 418l-.1-3.4-.3-3.07-.46-2.8-.6-2.6-.75-2.5-.9-2.37-1.06-2.35-1.25-2.35-1.5-2.44-1.88-2.62-2.48-3.05-4-4.3-13.48-13.56-2.48-3.05-1.87-2.63-1.5-2.45-1.24-2.36-.6-1.35" stroke="#000" stroke-width="2" fill="none"/><path d="M331.17 419h-2.02l-.14-.84 2-.32zM297.98 357.25l-9.1 1.82 1.76-14.9z"/><path d="M299.53 357.96l-11.8 2.36L290 341zm-9.5-.14l6.4-1.28-5.16-9.2z"/><path d="M330 418l.1-3.4.3-3.07.46-2.8.6-2.6.75-2.5.9-2.37 1.06-2.35 1.25-2.35 1.5-2.44 1.88-2.62 2.48-3.05 4-4.3 13.48-13.56 2.48-3.05 1.87-2.63 1.5-2.45 1.24-2.36.6-1.35" stroke="#000" stroke-width="2" fill="none"/><path d="M331 418.16l-.15.84h-2.02l.18-1.16zM371.1 359.07l-9.08-1.82 7.34-13.08z"/><path d="M372.26 360.32l-11.8-2.36L370 341zm-8.7-3.78l6.4 1.28-1.23-10.47z"/><path d="M140 245c0-2.76 2.24-5 5-5h270c2.76 0 5 2.24 5 5v31c0 2.76-2.24 5-5 5H145c-2.76 0-5-2.24-5-5z" stroke="#000" stroke-opacity="0" stroke-width="2" fill="#fff" fill-opacity="0"/><use xlink:href="#i" transform="matrix(1,0,0,1,160,240) translate(60.59033203125 25.896484375)"/><use xlink:href="#j" transform="matrix(1,0,0,1,160,240) translate(147.00439453125 25.896484375)"/><path d="M560 245.5c0-2.76 2.24-5 5-5h270c2.76 0 5 2.24 5 5v31c0 2.76-2.24 5-5 5H565c-2.76 0-5-2.24-5-5z" stroke="#000" stroke-opacity="0" stroke-width="2" fill="#fff" fill-opacity="0"/><use xlink:href="#k" transform="matrix(1,0,0,1,580,240.5) translate(103.79736328125 25.896484375)"/><path d="M420.4 424c0-2.76 2.27-4.98 5.03-4.96l94 .67c2.76.03 5.02-2.2 5.04-4.96l.07-10c.02-2.76 1.52-3.32 3.35-1.26l29.07 32.78c1.83 2.07 1.8 5.4-.06 7.43l-29.53 32.35c-1.86 2.04-3.35 1.45-3.33-1.3l.07-10c.03-2.77-2.2-5.02-4.96-5.04l-94-.66c-2.76-.02-4.98-2.28-4.96-5.04z" stroke="#a3d977" stroke-width="2" fill="#a3d977"/><use xlink:href="#l" transform="matrix(0.9999744907720326,0.007142674934086159,-0.007142674934086159,0.9999744907720326,420.5696283259934,399.2510139918117) translate(29.0947265625 45.396484375)"/><defs><path fill="#fff" d="M865-914c-3-187-2-380-2-570h180v1261c0 76 1 155 6 223H877c-8-49-9-116-10-174h-5C801-44 708 26 530 26c-135 0-234-46-297-139s-95-232-95-419c0-377 131-566 392-566 176 0 271 63 335 184zm-286-51c-222 0-255 197-255 427 0 229 31 425 253 425 237 0 286-195 286-441 0-238-52-411-284-411" id="q"/><path fill="#fff" d="M745-142h380V0H143v-142h422v-798H246v-142h499v940zM545-1292v-192h200v192H545" id="r"/><path fill="#fff" d="M715 0H502L69-1082h202c94 253 197 500 285 758 19 57 36 126 52 183 96-335 234-626 350-941h201" id="s"/><g id="a"><use transform="matrix(0.0087890625,0,0,0.0087890625,0,0)" xlink:href="#q"/><use transform="matrix(0.0087890625,0,0,0.0087890625,10.8017578125,0)" xlink:href="#r"/><use transform="matrix(0.0087890625,0,0,0.0087890625,21.603515625,0)" xlink:href="#s"/></g><path fill="#fff" d="M698-1104c312 3 392 244 392 558 0 315-82 566-392 566-169 0-277-65-331-184h-5c8 188 2 394 4 589H185V-858c0-76-1-156-6-224h175c6 52 9 120 10 178h4c58-122 150-202 330-200zm-49 991c225 0 255-203 255-433 0-225-32-419-253-419-236 0-285 192-285 441 0 237 53 411 283 411" id="t"/><use transform="matrix(0.0087890625,0,0,0.0087890625,0,0)" xlink:href="#t" id="b"/><path fill="#fff" d="M528 20c-247 0-343-132-343-381v-721h180v686c-4 177 45 284 224 277 194-8 279-136 279-336v-627h181c3 360-6 732 6 1082H885c-4-54-7-126-8-185h-3C809-64 714 20 528 20" id="u"/><path fill="#fff" d="M736-142h380V0H134v-142h422v-1200H267v-142h469v1342" id="v"/><g id="c"><use transform="matrix(0.0087890625,0,0,0.0087890625,0,0)" xlink:href="#u"/><use transform="matrix(0.0087890625,0,0,0.0087890625,10.8017578125,0)" xlink:href="#v"/></g><g id="d"><use transform="matrix(0.0087890625,0,0,0.0087890625,0,0)" xlink:href="#v"/><use transform="matrix(0.0087890625,0,0,0.0087890625,10.8017578125,0)" xlink:href="#r"/></g><path d="M865-914c-3-187-2-380-2-570h180v1261c0 76 1 155 6 223H877c-8-49-9-116-10-174h-5C801-44 708 26 530 26c-135 0-234-46-297-139s-95-232-95-419c0-377 131-566 392-566 176 0 271 63 335 184zm-286-51c-222 0-255 197-255 427 0 229 31 425 253 425 237 0 286-195 286-441 0-238-52-411-284-411" id="w"/><path d="M745-142h380V0H143v-142h422v-798H246v-142h499v940zM545-1292v-192h200v192H545" id="x"/><path d="M715 0H502L69-1082h202c94 253 197 500 285 758 19 57 36 126 52 183 96-335 234-626 350-941h201" id="y"/><g id="e"><use transform="matrix(0.0087890625,0,0,0.0087890625,0,0)" xlink:href="#w"/><use transform="matrix(0.0087890625,0,0,0.0087890625,10.8017578125,0)" xlink:href="#x"/><use transform="matrix(0.0087890625,0,0,0.0087890625,21.603515625,0)" xlink:href="#y"/></g><path d="M698-1104c312 3 392 244 392 558 0 315-82 566-392 566-169 0-277-65-331-184h-5c8 188 2 394 4 589H185V-858c0-76-1-156-6-224h175c6 52 9 120 10 178h4c58-122 150-202 330-200zm-49 991c225 0 255-203 255-433 0-225-32-419-253-419-236 0-285 192-285 441 0 237 53 411 283 411" id="z"/><use transform="matrix(0.0087890625,0,0,0.0087890625,0,0)" xlink:href="#z" id="f"/><path d="M528 20c-247 0-343-132-343-381v-721h180v686c-4 177 45 284 224 277 194-8 279-136 279-336v-627h181c3 360-6 732 6 1082H885c-4-54-7-126-8-185h-3C809-64 714 20 528 20" id="A"/><path d="M736-142h380V0H134v-142h422v-1200H267v-142h469v1342" id="B"/><g id="g"><use transform="matrix(0.0087890625,0,0,0.0087890625,0,0)" xlink:href="#A"/><use transform="matrix(0.0087890625,0,0,0.0087890625,10.8017578125,0)" xlink:href="#B"/></g><g id="h"><use transform="matrix(0.0087890625,0,0,0.0087890625,0,0)" xlink:href="#B"/><use transform="matrix(0.0087890625,0,0,0.0087890625,10.8017578125,0)" xlink:href="#x"/></g><path d="M713 0H515L10-1349h201C345-955 498-579 615-168c116-411 269-787 402-1181h201" id="C"/><path d="M839-1102c70 0 148 7 206 17v167c-112-18-268-36-363 15-129 69-208 203-208 395V0H294c-10-367 32-789-52-1082h171c21 75 41 161 48 250h5c67-152 152-270 373-270" id="D"/><path d="M682 16c-209 0-323-80-324-285v-671H190v-142h170l58-282h120v282h432v142H538v652c2 114 60 155 182 155 106 0 209-16 297-34v137C921-4 806 16 682 16" id="E"/><path d="M1000-272c3 95 12 159 101 161 21 0 41-3 59-7V-6c-44 10-86 16-139 16-141 2-191-84-197-217h-6C748-76 648 20 446 20c-207 0-318-120-318-322 0-266 194-348 454-354l236-4c12-191-40-305-222-305-140 0-220 47-232 172l-188-17c33-204 181-292 423-292 255 0 401 118 401 364v466zm-683-27c0 109 63 184 175 182 166-3 259-96 306-217 24-65 20-120 20-200-232 7-501-28-501 235" id="F"/><g id="i"><use transform="matrix(0.0087890625,0,0,0.0087890625,0,0)" xlink:href="#C"/><use transform="matrix(0.0087890625,0,0,0.0087890625,10.8017578125,0)" xlink:href="#x"/><use transform="matrix(0.0087890625,0,0,0.0087890625,21.603515625,0)" xlink:href="#D"/><use transform="matrix(0.0087890625,0,0,0.0087890625,32.4052734375,0)" xlink:href="#E"/><use transform="matrix(0.0087890625,0,0,0.0087890625,43.20703125,0)" xlink:href="#A"/><use transform="matrix(0.0087890625,0,0,0.0087890625,54.0087890625,0)" xlink:href="#F"/><use transform="matrix(0.0087890625,0,0,0.0087890625,64.810546875,0)" xlink:href="#B"/></g><path d="M473-1349c438-1 655 221 652 661C1122-268 945-8 532 0H162v-1349h311zm42 1193c308-4 416-205 418-532 2-330-131-509-459-505H353v1037h162" id="G"/><path d="M102-681c0-398 126-689 513-689 165 0 291 58 379 174s132 287 132 515c-1 318-88 554-298 657-123 61-317 58-438-3-206-104-288-341-288-654zm749 406c94-160 97-656-5-807-57-85-130-132-231-132-104 0-178 47-234 132-101 153-99 655 1 809 57 89 130 138 232 138 109 0 184-49 237-140" id="H"/><path d="M285-1169c8 382 2 780 4 1169H129v-1349h237c86 239 188 461 253 720 69-258 169-481 255-720h225V0H937c2-390-5-788 6-1169-75 255-170 488-259 729H547c-90-240-185-475-262-729" id="I"/><g id="j"><use transform="matrix(0.0087890625,0,0,0.0087890625,0,0)" xlink:href="#G"/><use transform="matrix(0.0087890625,0,0,0.0087890625,10.8017578125,0)" xlink:href="#H"/><use transform="matrix(0.0087890625,0,0,0.0087890625,21.603515625,0)" xlink:href="#I"/></g><g id="k"><use transform="matrix(0.0087890625,0,0,0.0087890625,0,0)" xlink:href="#G"/><use transform="matrix(0.0087890625,0,0,0.0087890625,10.8017578125,0)" xlink:href="#H"/><use transform="matrix(0.0087890625,0,0,0.0087890625,21.603515625,0)" xlink:href="#I"/></g><path d="M617-1102c355 0 481 238 477 599H322c5 222 84 388 301 388 144 0 244-59 284-166l158 45C1002-72 854 20 623 20c-342 0-490-220-490-568 0-346 151-554 484-554zm291 461c-18-192-90-328-289-328-194 0-287 128-295 328h584" id="J"/><path d="M706-1102c241 0 344 136 343 381V0H868v-695c1-168-57-273-220-268-190 6-283 138-283 336V0H185c-3-360 6-732-6-1082h170c4 54 7 126 8 185h3c63-121 164-204 346-205" id="K"/><g id="l"><use transform="matrix(0.0087890625,0,0,0.0087890625,0,0)" xlink:href="#D"/><use transform="matrix(0.0087890625,0,0,0.0087890625,10.8017578125,0)" xlink:href="#J"/><use transform="matrix(0.0087890625,0,0,0.0087890625,21.603515625,0)" xlink:href="#K"/><use transform="matrix(0.0087890625,0,0,0.0087890625,32.4052734375,0)" xlink:href="#w"/><use transform="matrix(0.0087890625,0,0,0.0087890625,43.20703125,0)" xlink:href="#J"/><use transform="matrix(0.0087890625,0,0,0.0087890625,54.0087890625,0)" xlink:href="#D"/></g></defs></g></svg>