<svg xmlns="http://www.w3.org/2000/svg" xmlns:xlink="http://www.w3.org/1999/xlink" width="716" height="327"><g transform="translate(-361 -438)"><path d="M400 645c0-2.76 2.24-5 5-5h630c2.76 0 5 2.24 5 5v70c0 2.76-2.24 5-5 5H405c-2.76 0-5-2.24-5-5z" stroke="#eee" stroke-width="2" fill="#eee"/><use xlink:href="#a" transform="matrix(1,0,0,1,420,640) translate(211.98567708333331 47.994791666666664)"/><use xlink:href="#b" transform="matrix(1,0,0,1,420,640) translate(275.99609375 47.994791666666664)"/><path d="M620 465c0-2.76 2.24-5 5-5h150c2.76 0 5 2.24 5 5v50c0 2.76-2.24 5-5 5H625c-2.76 0-5-2.24-5-5z" fill="none"/><use xlink:href="#c" transform="matrix(1,0,0,1,620,460) translate(23.990885416666664 39.32725694444444)"/><path d="M780 490l16.73.35 16.34 1.03 15.66 1.64 14.8 2.18 13.85 2.64 12.82 3 11.8 3.3 10.84 3.52 9.92 3.68 9.06 3.8 8.27 3.9 7.56 3.95 6.92 4 6.34 4 5.82 4.05 5.34 4.05 4.9 4.06 4.53 4.07 4.18 4.1 3.85 4.08 3.56 4.13 3.27 4.14 3.03 4.18 2.8 4.2 2.58 4.27 2.38 4.32 2.18 4.4 2 4.46 1.8 4.56 1.62 4.67 1.45 4.8 1.27 4.92 1.08 5.1.9 5.25.68 5.47.48 5.7.26 5.95.03 3.08" stroke="#0c7cba" stroke-width="2" fill="none"/><path d="M780.02 489l-.02 1.15V489zM1000.9 639l-5.4-14 9.27-.5z" fill="#0c7cba"/><path d="M1001.66 640h-1.46l-6.12-15.93 12-.63zm-4.72-14.08l3.78 9.85 2.73-10.2z" fill="#0c7cba"/><path fill="#fff" d="M939.7 531.3h32.02v21.6h-32z"/><use xlink:href="#d" transform="matrix(1,0,0,1,939.7140183628868,531.3075031969256) translate(0 14.4)"/><path d="M442.67 639l.13-6.27.38-6.07.62-5.9.85-5.75 1.07-5.6 1.28-5.47 1.5-5.35 1.7-5.25 1.9-5.15 2.14-5.06 2.34-4.97 2.56-4.9 2.8-4.82 3-4.75 3.26-4.7 3.5-4.6 3.77-4.55 4.03-4.48 4.32-4.4 4.6-4.33 4.92-4.24 5.22-4.14 5.55-4.03 5.9-3.9 6.22-3.77 6.58-3.62 6.92-3.42 7.26-3.23 7.6-3 7.94-2.78 8.25-2.48 8.53-2.2 8.8-1.87 9.03-1.53 9.22-1.17 9.38-.78 9.5-.4L620 490" stroke="#000" stroke-width="2" fill="none"/><path d="M443.67 639.05l-.05.95h-2l.05-1.06zM620 490l-14.1 5.12-.3-9.27z"/><path d="M620 488.96v2.1l-15.05 5.47-.4-12.02zm-13.15 4.75l9.92-3.6-10.14-2.9z"/><path fill="#fff" d="M462.74 536.96h32.42v18h-32.42z"/><use xlink:href="#e" transform="matrix(1,0,0,1,462.7438010691223,536.9639951922171) translate(0 14.396484375)"/><path d="M780 490l5.06.1 4.9.3 4.73.5 4.6.7 4.5.85 4.37 1.02 4.28 1.2 4.2 1.36 4.1 1.53 4.05 1.7 3.97 1.87 3.9 2.05 3.87 2.22 3.8 2.42 3.76 2.6 3.7 2.83 3.68 3.03 3.6 3.25 3.58 3.5 3.5 3.74 3.47 4 3.4 4.28 3.3 4.57 3.24 4.87 3.13 5.16 3.02 5.5 2.9 5.8 2.72 6.15 2.56 6.48 2.36 6.78 2.14 7.1 1.9 7.36 1.6 7.63 1.34 7.86 1.02 8.05.68 8.2.35 8.3.03 4.15" stroke="#000" stroke-width="2" fill="none"/><path d="M780.07 489l-.07 1.04V489zM901.33 639l-5.2-14.07 9.26-.37z"/><path d="M902.1 640h-1.46l-5.93-16 12.03-.5zm-4.56-14.12l3.66 9.9 2.86-10.17z"/><path fill="#fff" d="M875.4 588.05h42.67v17.78H875.4z"/><use xlink:href="#f" transform="matrix(1,0,0,1,875.4026206984947,588.0454901251563) translate(0 14.21875)"/><path d="M780 490l8.48.18 8.37.52 8.26.87 8.1 1.2 7.96 1.5 7.75 1.83 7.57 2.1 7.34 2.4 7.1 2.64 6.87 2.88 6.6 3.1 6.35 3.32 6.08 3.5 5.8 3.7 5.53 3.84 5.26 4 4.98 4.12 4.72 4.25 4.46 4.36 4.2 4.5 3.95 4.56 3.7 4.67 3.47 4.76 3.22 4.84 2.98 4.93 2.76 5.03 2.54 5.1 2.32 5.2 2.1 5.3 1.87 5.4 1.66 5.5 1.45 5.62 1.2 5.73 1 5.86.76 6 .52 6.17.26 6.3.04 3.23" stroke="#0c7cba" stroke-width="2" fill="none"/><path d="M780.04 489l-.04 1.07V489zM947.56 639l-5.35-14 9.27-.48z" fill="#0c7cba"/><path d="M948.32 640h-1.45l-6.1-15.94 12.02-.6zm-4.7-14.1l3.77 9.87 2.74-10.18z" fill="#0c7cba"/><path fill="#fff" d="M914.93 563.3h32.42v18h-32.42z"/><use xlink:href="#g" transform="matrix(1,0,0,1,914.929890810785,563.3050306320117) translate(0 14.396484375)"/><defs><path fill="#999" d="M162 0v-1349h919v156H353v422h668v154H353v461h769V0H162" id="h"/><path fill="#999" d="M736-142h380V0H134v-142h422v-1200H267v-142h469v1342" id="i"/><path fill="#999" d="M904-1102c199 0 220 177 220 381V0H956v-686c-3-114 0-215-60-264-70-33-125-4-158 71-26 56-39 140-39 252V0H531v-686c-3-114-1-215-61-264-78-41-136 24-157 84-24 69-39 159-39 259V0H105c-3-360 6-732-6-1082h149c6 50 3 123 8 175 36-100 83-195 216-195 135 0 166 79 196 196 42-105 93-196 236-196" id="j"/><g id="a"><use transform="matrix(0.013020833333333334,0,0,0.013020833333333334,0,0)" xlink:href="#h"/><use transform="matrix(0.013020833333333334,0,0,0.013020833333333334,16.002604166666668,0)" xlink:href="#i"/><use transform="matrix(0.013020833333333334,0,0,0.013020833333333334,32.005208333333336,0)" xlink:href="#j"/></g><path fill="#999" d="M1121-976c0 225-142 341-344 379L1177 0H957L591-575H353V0H162v-1349h482c281 3 477 100 477 373zM633-726c181-1 296-73 296-247 0-149-101-223-304-223H353v470h280" id="k"/><path fill="#999" d="M528 20c-247 0-343-132-343-381v-721h180v686c-4 177 45 284 224 277 194-8 279-136 279-336v-627h181c3 360-6 732 6 1082H885c-4-54-7-126-8-185h-3C809-64 714 20 528 20" id="l"/><path fill="#999" d="M706-1102c241 0 344 136 343 381V0H868v-695c1-168-57-273-220-268-190 6-283 138-283 336V0H185c-3-360 6-732-6-1082h170c4 54 7 126 8 185h3c63-121 164-204 346-205" id="m"/><path fill="#999" d="M682 16c-209 0-323-80-324-285v-671H190v-142h170l58-282h120v282h432v142H538v652c2 114 60 155 182 155 106 0 209-16 297-34v137C921-4 806 16 682 16" id="n"/><path fill="#999" d="M745-142h380V0H143v-142h422v-798H246v-142h499v940zM545-1292v-192h200v192H545" id="o"/><path fill="#999" d="M617-1102c355 0 481 238 477 599H322c5 222 84 388 301 388 144 0 244-59 284-166l158 45C1002-72 854 20 623 20c-342 0-490-220-490-568 0-346 151-554 484-554zm291 461c-18-192-90-328-289-328-194 0-287 128-295 328h584" id="p"/><g id="b"><use transform="matrix(0.013020833333333334,0,0,0.013020833333333334,0,0)" xlink:href="#k"/><use transform="matrix(0.013020833333333334,0,0,0.013020833333333334,16.002604166666668,0)" xlink:href="#l"/><use transform="matrix(0.013020833333333334,0,0,0.013020833333333334,32.005208333333336,0)" xlink:href="#m"/><use transform="matrix(0.013020833333333334,0,0,0.013020833333333334,48.0078125,0)" xlink:href="#n"/><use transform="matrix(0.013020833333333334,0,0,0.013020833333333334,64.01041666666667,0)" xlink:href="#o"/><use transform="matrix(0.013020833333333334,0,0,0.013020833333333334,80.01302083333334,0)" xlink:href="#j"/><use transform="matrix(0.013020833333333334,0,0,0.013020833333333334,96.01562500000001,0)" xlink:href="#p"/></g><path d="M528 20c-247 0-343-132-343-381v-721h180v686c-4 177 45 284 224 277 194-8 279-136 279-336v-627h181c3 360-6 732 6 1082H885c-4-54-7-126-8-185h-3C809-64 714 20 528 20" id="q"/><path d="M698-1104c312 3 392 244 392 558 0 315-82 566-392 566-169 0-277-65-331-184h-5c8 188 2 394 4 589H185V-858c0-76-1-156-6-224h175c6 52 9 120 10 178h4c58-122 150-202 330-200zm-49 991c225 0 255-203 255-433 0-225-32-419-253-419-236 0-285 192-285 441 0 237 53 411 283 411" id="r"/><path d="M865-914c-3-187-2-380-2-570h180v1261c0 76 1 155 6 223H877c-8-49-9-116-10-174h-5C801-44 708 26 530 26c-135 0-234-46-297-139s-95-232-95-419c0-377 131-566 392-566 176 0 271 63 335 184zm-286-51c-222 0-255 197-255 427 0 229 31 425 253 425 237 0 286-195 286-441 0-238-52-411-284-411" id="s"/><path d="M1000-272c3 95 12 159 101 161 21 0 41-3 59-7V-6c-44 10-86 16-139 16-141 2-191-84-197-217h-6C748-76 648 20 446 20c-207 0-318-120-318-322 0-266 194-348 454-354l236-4c12-191-40-305-222-305-140 0-220 47-232 172l-188-17c33-204 181-292 423-292 255 0 401 118 401 364v466zm-683-27c0 109 63 184 175 182 166-3 259-96 306-217 24-65 20-120 20-200-232 7-501-28-501 235" id="t"/><path d="M682 16c-209 0-323-80-324-285v-671H190v-142h170l58-282h120v282h432v142H538v652c2 114 60 155 182 155 106 0 209-16 297-34v137C921-4 806 16 682 16" id="u"/><path d="M617-1102c355 0 481 238 477 599H322c5 222 84 388 301 388 144 0 244-59 284-166l158 45C1002-72 854 20 623 20c-342 0-490-220-490-568 0-346 151-554 484-554zm291 461c-18-192-90-328-289-328-194 0-287 128-295 328h584" id="v"/><g id="c"><use transform="matrix(0.015190972222222222,0,0,0.015190972222222222,0,0)" xlink:href="#q"/><use transform="matrix(0.015190972222222222,0,0,0.015190972222222222,18.66970486111111,0)" xlink:href="#r"/><use transform="matrix(0.015190972222222222,0,0,0.015190972222222222,37.33940972222222,0)" xlink:href="#s"/><use transform="matrix(0.015190972222222222,0,0,0.015190972222222222,56.00911458333333,0)" xlink:href="#t"/><use transform="matrix(0.015190972222222222,0,0,0.015190972222222222,74.67881944444444,0)" xlink:href="#u"/><use transform="matrix(0.015190972222222222,0,0,0.015190972222222222,93.34852430555556,0)" xlink:href="#v"/></g><path fill="#0c7cba" d="M185-189c-5-48-123-54-124 2 14 75 158 14 163 119 3 78-121 87-175 55-17-10-28-26-33-46l33-7c5 56 141 63 141-1 0-78-155-14-162-118-5-82 145-84 179-34 5 7 8 16 11 25" id="w"/><path fill="#0c7cba" d="M84 4C-5 8 30-112 23-190h32v120c0 31 7 50 39 49 72-2 45-101 50-169h31l1 190h-30c-1-10 1-25-2-33-11 22-28 36-60 37" id="x"/><path fill="#0c7cba" d="M115-194c53 0 69 39 70 98 0 66-23 100-70 100C84 3 66-7 56-30L54 0H23l1-261h32v101c10-23 28-34 59-34zm-8 174c40 0 45-34 45-75 0-40-5-75-45-74-42 0-51 32-51 76 0 43 10 73 51 73" id="y"/><g id="d"><use transform="matrix(0.05,0,0,0.05,0,0)" xlink:href="#w"/><use transform="matrix(0.05,0,0,0.05,12,0)" xlink:href="#x"/><use transform="matrix(0.05,0,0,0.05,22,0)" xlink:href="#y"/></g><path d="M285-1169c8 382 2 780 4 1169H129v-1349h237c86 239 188 461 253 720 69-258 169-481 255-720h225V0H937c2-390-5-788 6-1169-75 255-170 488-259 729H547c-90-240-185-475-262-729" id="z"/><path d="M873-819c-18-114-119-146-250-146-163 0-245 50-245 151 0 151 170 148 294 185 182 54 388 94 388 320 0 240-189 325-439 329-245 4-410-69-454-268l159-31c24 133 136 168 295 165 144-2 270-31 270-171 0-164-195-160-331-202-167-52-350-87-350-299 0-218 173-315 413-313 220 2 373 77 412 260" id="A"/><path d="M1048-32c-2 300-135 456-433 456-222-1-358-88-400-267l184-25c22 99 100 157 222 156 184-2 248-125 248-315 0-64 3-133-2-194C807-100 706-13 524-12c-306 0-381-228-381-537 0-318 85-550 400-550 164 0 271 83 325 202h3c1-60 3-134 12-185h171c-13 339-4 702-6 1050zM585-145c210-8 284-178 284-406 0-192-52-331-177-392-33-16-69-22-104-22-223 2-259 184-259 414 0 229 31 415 256 406" id="B"/><g id="e"><use transform="matrix(0.0087890625,0,0,0.0087890625,0,0)" xlink:href="#z"/><use transform="matrix(0.0087890625,0,0,0.0087890625,10.8017578125,0)" xlink:href="#A"/><use transform="matrix(0.0087890625,0,0,0.0087890625,21.603515625,0)" xlink:href="#B"/></g><path d="M875 0v-623H353V0H162v-1349h191v566h522v-566h191V0H875" id="C"/><path d="M904-1102c199 0 220 177 220 381V0H956v-686c-3-114 0-215-60-264-70-33-125-4-158 71-26 56-39 140-39 252V0H531v-686c-3-114-1-215-61-264-78-41-136 24-157 84-24 69-39 159-39 259V0H105c-3-360 6-732-6-1082h149c6 50 3 123 8 175 36-100 83-195 216-195 135 0 166 79 196 196 42-105 93-196 236-196" id="D"/><path d="M736-142h380V0H134v-142h422v-1200H267v-142h469v1342" id="E"/><g id="f"><use transform="matrix(0.008680555555555556,0,0,0.008680555555555556,0,0)" xlink:href="#C"/><use transform="matrix(0.008680555555555556,0,0,0.008680555555555556,10.668402777777779,0)" xlink:href="#u"/><use transform="matrix(0.008680555555555556,0,0,0.008680555555555556,21.336805555555557,0)" xlink:href="#D"/><use transform="matrix(0.008680555555555556,0,0,0.008680555555555556,32.005208333333336,0)" xlink:href="#E"/></g><path fill="#0c7cba" d="M650-1214c-281 0-336 244-336 533 0 295 60 546 347 546 188 0 263-142 322-282l159 65C1058-155 935 20 659 20c-401 0-546-295-546-701 0-407 135-689 536-689 264 0 391 146 466 335l-168 65c-47-129-127-244-297-244" id="F"/><path fill="#0c7cba" d="M904-1102c199 0 220 177 220 381V0H956v-686c-3-114 0-215-60-264-70-33-125-4-158 71-26 56-39 140-39 252V0H531v-686c-3-114-1-215-61-264-78-41-136 24-157 84-24 69-39 159-39 259V0H105c-3-360 6-732-6-1082h149c6 50 3 123 8 175 36-100 83-195 216-195 135 0 166 79 196 196 42-105 93-196 236-196" id="G"/><path fill="#0c7cba" d="M865-914c-3-187-2-380-2-570h180v1261c0 76 1 155 6 223H877c-8-49-9-116-10-174h-5C801-44 708 26 530 26c-135 0-234-46-297-139s-95-232-95-419c0-377 131-566 392-566 176 0 271 63 335 184zm-286-51c-222 0-255 197-255 427 0 229 31 425 253 425 237 0 286-195 286-441 0-238-52-411-284-411" id="H"/><g id="g"><use transform="matrix(0.0087890625,0,0,0.0087890625,0,0)" xlink:href="#F"/><use transform="matrix(0.0087890625,0,0,0.0087890625,10.8017578125,0)" xlink:href="#G"/><use transform="matrix(0.0087890625,0,0,0.0087890625,21.603515625,0)" xlink:href="#H"/></g></defs></g></svg>